<?xml version="1.0" encoding="UTF-8" standalone="no"?>
<!-- Created with Inkscape (http://www.inkscape.org/) -->

<svg
   version="1.1"
   id="svg2"
   xml:space="preserve"
   width="253.868"
   height="163.55566"
   viewBox="0 0 253.868 163.55566"
   sodipodi:docname="ofai_logo.svg"
   inkscape:version="1.1-rc (1:1.1+rc+202105232036+f4db50c7c1)"
   xmlns:inkscape="http://www.inkscape.org/namespaces/inkscape"
   xmlns:sodipodi="http://sodipodi.sourceforge.net/DTD/sodipodi-0.dtd"
   xmlns:xlink="http://www.w3.org/1999/xlink"
   xmlns="http://www.w3.org/2000/svg"
   xmlns:svg="http://www.w3.org/2000/svg"
   xmlns:rdf="http://www.w3.org/1999/02/22-rdf-syntax-ns#"
   xmlns:cc="http://creativecommons.org/ns#"
   xmlns:dc="http://purl.org/dc/elements/1.1/"><metadata
     id="metadata8"><rdf:RDF><cc:Work
         rdf:about=""><dc:format>image/svg+xml</dc:format><dc:type
           rdf:resource="http://purl.org/dc/dcmitype/StillImage" /></cc:Work></rdf:RDF></metadata><defs
     id="defs6"><linearGradient
       inkscape:collect="always"
       id="linearGradient34343"><stop
         style="stop-color:#2dc63a;stop-opacity:1"
         offset="0"
         id="stop34339" /><stop
         style="stop-color:#60d639;stop-opacity:1"
         offset="1"
         id="stop34341" /></linearGradient><linearGradient
       inkscape:collect="always"
       id="linearGradient2187"><stop
         style="stop-color:#2dc63a;stop-opacity:1"
         offset="0"
         id="stop2183" /><stop
         style="stop-color:#60d639;stop-opacity:1"
         offset="1"
         id="stop2185" /></linearGradient><clipPath
       clipPathUnits="userSpaceOnUse"
       id="clipPath18"><path
         d="m 85.866,557.603 c -31.899,0 -58,-26.1 -58,-58 v 0 -407.094 c 0,-31.9 26.101,-58 58,-58 v 0 h 139.119 c 31.899,0 57.999,26.101 57.999,58 v 0 407.094 c 0,31.9 -26.1,58 -57.999,58 v 0 z"
         id="path16"
         inkscape:connector-curvature="0" /></clipPath><linearGradient
       x1="0"
       y1="0"
       x2="1"
       y2="0"
       gradientUnits="userSpaceOnUse"
       gradientTransform="matrix(269.01172,-465.94196,-465.94196,-269.01172,20.919435,529.02722)"
       spreadMethod="pad"
       id="linearGradient30"><stop
         style="stop-opacity:1;stop-color:#ffffff"
         offset="0"
         id="stop24" /><stop
         style="stop-opacity:1;stop-color:#e6e6e6"
         offset="0.55900274"
         id="stop26" /><stop
         style="stop-opacity:1;stop-color:#e6e6e6"
         offset="1"
         id="stop28" /></linearGradient><clipPath
       clipPathUnits="userSpaceOnUse"
       id="clipPath40"><path
         d="M 0,577.874 H 813.353 V 0 H 0 Z"
         id="path38"
         inkscape:connector-curvature="0" /></clipPath><clipPath
       clipPathUnits="userSpaceOnUse"
       id="clipPath68"><path
         d="m 81.876,428.708 c -0.811,-0.345 -1.512,-0.834 -2.104,-1.469 v 0 c -0.591,-0.635 -1.049,-1.398 -1.376,-2.289 v 0 c -0.326,-0.891 -0.488,-1.882 -0.488,-2.976 v 0 c 0,-1.094 0.162,-2.091 0.488,-2.99 v 0 c 0.327,-0.9 0.782,-1.667 1.363,-2.302 v 0 c 0.582,-0.635 1.279,-1.129 2.091,-1.481 v 0 c 0.811,-0.353 1.711,-0.53 2.699,-0.53 v 0 c 0.987,0 1.891,0.177 2.711,0.53 v 0 c 0.82,0.352 1.521,0.846 2.104,1.481 v 0 c 0.582,0.635 1.031,1.402 1.349,2.302 v 0 c 0.318,0.899 0.477,1.896 0.477,2.99 v 0 c 0,1.094 -0.164,2.085 -0.491,2.976 v 0 c -0.325,0.891 -0.78,1.654 -1.361,2.289 v 0 c -0.583,0.635 -1.284,1.124 -2.104,1.469 v 0 c -0.821,0.344 -1.716,0.515 -2.685,0.515 v 0 c -0.97,0 -1.862,-0.171 -2.673,-0.515 m 0.199,-10.041 c -0.592,0.81 -0.887,1.913 -0.887,3.307 v 0 c 0,1.376 0.295,2.465 0.887,3.268 v 0 c 0.59,0.802 1.415,1.203 2.474,1.203 v 0 c 1.057,0 1.882,-0.401 2.473,-1.203 v 0 c 0.591,-0.803 0.886,-1.892 0.886,-3.268 v 0 c 0,-1.394 -0.295,-2.497 -0.886,-3.307 v 0 c -0.591,-0.811 -1.416,-1.217 -2.473,-1.217 v 0 c -1.059,0 -1.884,0.406 -2.474,1.217"
         id="path66"
         inkscape:connector-curvature="0" /></clipPath><linearGradient
       x1="0"
       y1="0"
       x2="1"
       y2="0"
       gradientUnits="userSpaceOnUse"
       gradientTransform="matrix(0,-14.552222,-14.552222,0,84.548332,429.22354)"
       spreadMethod="pad"
       id="linearGradient80"><stop
         style="stop-opacity:1;stop-color:#60d639"
         offset="0"
         id="stop74" /><stop
         style="stop-opacity:1;stop-color:#60d639"
         offset="0.02824881"
         id="stop76" /><stop
         style="stop-opacity:1;stop-color:#2dc63a"
         offset="1"
         id="stop78" /></linearGradient><clipPath
       clipPathUnits="userSpaceOnUse"
       id="clipPath90"><path
         d="m 96.904,428.933 c -0.952,-0.16 -1.755,-0.327 -2.408,-0.503 v 0 -18.283 h 3.203 v 5.37 c 0.352,-0.193 0.802,-0.37 1.349,-0.528 v 0 c 0.546,-0.159 1.145,-0.238 1.799,-0.238 v 0 c 0.969,0 1.839,0.176 2.605,0.529 v 0 c 0.768,0.353 1.407,0.847 1.919,1.481 v 0 c 0.511,0.636 0.904,1.393 1.177,2.276 v 0 c 0.274,0.881 0.411,1.852 0.411,2.911 v 0 c 0,1.111 -0.163,2.111 -0.49,3.002 v 0 c -0.327,0.891 -0.794,1.649 -1.403,2.275 v 0 c -0.608,0.627 -1.345,1.107 -2.209,1.442 v 0 c -0.864,0.336 -1.843,0.503 -2.936,0.503 v 0 c -1.059,0 -2.064,-0.079 -3.017,-0.237 m 1.919,-11.179 c -0.468,0.167 -0.843,0.348 -1.124,0.543 v 0 7.911 c 0.316,0.087 0.638,0.145 0.964,0.171 v 0 c 0.327,0.027 0.639,0.04 0.94,0.04 v 0 c 1.428,0 2.465,-0.397 3.109,-1.191 v 0 c 0.643,-0.793 0.965,-1.905 0.965,-3.333 v 0 c 0,-1.341 -0.268,-2.409 -0.806,-3.202 v 0 c -0.538,-0.794 -1.39,-1.19 -2.553,-1.19 v 0 c -0.53,0 -1.028,0.083 -1.495,0.251"
         id="path88"
         inkscape:connector-curvature="0" /></clipPath><linearGradient
       x1="0"
       y1="0"
       x2="1"
       y2="0"
       gradientUnits="userSpaceOnUse"
       gradientTransform="matrix(0,-19.023466,-19.023466,0,100.72746,429.1705)"
       spreadMethod="pad"
       id="linearGradient102"><stop
         style="stop-opacity:1;stop-color:#60d639"
         offset="0"
         id="stop96" /><stop
         style="stop-opacity:1;stop-color:#60d639"
         offset="0.02824881"
         id="stop98" /><stop
         style="stop-opacity:1;stop-color:#2dc63a"
         offset="1"
         id="stop100" /></linearGradient><clipPath
       clipPathUnits="userSpaceOnUse"
       id="clipPath112"><path
         d="m 113.547,428.761 c -0.777,-0.309 -1.465,-0.768 -2.064,-1.376 v 0 c -0.6,-0.609 -1.081,-1.372 -1.443,-2.289 v 0 c -0.362,-0.918 -0.541,-1.984 -0.541,-3.201 v 0 c 0,-1.042 0.14,-1.998 0.423,-2.871 v 0 c 0.281,-0.873 0.714,-1.632 1.296,-2.275 v 0 c 0.583,-0.645 1.323,-1.148 2.223,-1.509 v 0 c 0.899,-0.362 1.957,-0.542 3.175,-0.542 v 0 c 0.476,0 0.943,0.026 1.402,0.079 v 0 c 0.459,0.053 0.886,0.119 1.283,0.199 v 0 c 0.397,0.079 0.75,0.167 1.059,0.264 v 0 c 0.308,0.096 0.551,0.189 0.728,0.277 v 0 l -0.424,2.62 c -0.371,-0.158 -0.878,-0.308 -1.522,-0.449 v 0 c -0.644,-0.142 -1.354,-0.212 -2.129,-0.212 v 0 c -1.323,0 -2.333,0.304 -3.03,0.913 v 0 c -0.697,0.609 -1.09,1.468 -1.177,2.58 v 0 h 9.128 c 0.017,0.176 0.03,0.374 0.039,0.595 v 0 c 0.009,0.22 0.014,0.419 0.014,0.595 v 0 c 0,2.346 -0.534,4.11 -1.601,5.292 v 0 c -1.068,1.181 -2.553,1.772 -4.458,1.772 v 0 c -0.812,0 -1.605,-0.154 -2.381,-0.462 m -0.424,-4.247 c 0.141,0.388 0.339,0.731 0.596,1.032 v 0 c 0.255,0.3 0.568,0.542 0.938,0.727 v 0 c 0.371,0.186 0.803,0.278 1.297,0.278 v 0 c 0.476,0 0.887,-0.084 1.231,-0.252 v 0 c 0.343,-0.167 0.634,-0.396 0.873,-0.687 v 0 c 0.238,-0.292 0.419,-0.636 0.542,-1.032 v 0 c 0.123,-0.396 0.186,-0.816 0.186,-1.257 v 0 h -5.954 c 0.053,0.406 0.15,0.803 0.291,1.191"
         id="path110"
         inkscape:connector-curvature="0" /></clipPath><linearGradient
       x1="0"
       y1="0"
       x2="1"
       y2="0"
       gradientUnits="userSpaceOnUse"
       gradientTransform="matrix(0,-14.525702,-14.525702,0,115.74253,429.22354)"
       spreadMethod="pad"
       id="linearGradient124"><stop
         style="stop-opacity:1;stop-color:#60d639"
         offset="0"
         id="stop118" /><stop
         style="stop-opacity:1;stop-color:#60d639"
         offset="0.02824881"
         id="stop120" /><stop
         style="stop-opacity:1;stop-color:#2dc63a"
         offset="1"
         id="stop122" /></linearGradient><clipPath
       clipPathUnits="userSpaceOnUse"
       id="clipPath134"><path
         d="m 127.781,428.933 c -0.988,-0.16 -1.79,-0.327 -2.408,-0.503 v 0 -13.388 h 3.202 v 11.166 c 0.211,0.035 0.538,0.079 0.979,0.132 v 0 c 0.44,0.052 0.864,0.079 1.27,0.079 v 0 c 0.546,0 1.01,-0.075 1.389,-0.225 v 0 c 0.379,-0.15 0.678,-0.388 0.9,-0.715 v 0 c 0.219,-0.326 0.379,-0.749 0.476,-1.269 v 0 c 0.096,-0.521 0.145,-1.151 0.145,-1.892 v 0 -7.276 h 3.202 v 7.779 c 0,0.934 -0.093,1.795 -0.278,2.579 v 0 c -0.186,0.785 -0.502,1.456 -0.953,2.011 v 0 c -0.449,0.555 -1.053,0.988 -1.812,1.297 v 0 c -0.759,0.308 -1.703,0.462 -2.831,0.462 v 0 c -1.2,0 -2.294,-0.079 -3.281,-0.237"
         id="path132"
         inkscape:connector-curvature="0" /></clipPath><linearGradient
       x1="0"
       y1="0"
       x2="1"
       y2="0"
       gradientUnits="userSpaceOnUse"
       gradientTransform="matrix(0,-14.128735,-14.128735,0,131.15436,429.1705)"
       spreadMethod="pad"
       id="linearGradient146"><stop
         style="stop-opacity:1;stop-color:#60d639"
         offset="0"
         id="stop140" /><stop
         style="stop-opacity:1;stop-color:#60d639"
         offset="0.02824881"
         id="stop142" /><stop
         style="stop-opacity:1;stop-color:#2dc63a"
         offset="1"
         id="stop144" /></linearGradient><clipPath
       clipPathUnits="userSpaceOnUse"
       id="clipPath156"><path
         d="m 142.253,434.052 c -0.935,-1.014 -1.402,-2.412 -1.402,-4.193 v 0 -14.817 h 3.202 v 11.166 h 5.027 v 2.672 h -5.027 v 0.926 c 0,0.441 0.043,0.85 0.132,1.23 v 0 c 0.088,0.379 0.238,0.701 0.449,0.966 v 0 c 0.213,0.264 0.495,0.471 0.847,0.622 v 0 c 0.353,0.149 0.785,0.225 1.296,0.225 v 0 c 0.459,0 0.887,-0.045 1.284,-0.133 v 0 c 0.397,-0.089 0.745,-0.203 1.045,-0.343 v 0 l 0.609,2.645 c -0.283,0.106 -0.706,0.225 -1.27,0.357 v 0 c -0.565,0.132 -1.218,0.199 -1.958,0.199 v 0 c -1.888,0 -3.299,-0.508 -4.234,-1.522"
         id="path154"
         inkscape:connector-curvature="0" /></clipPath><linearGradient
       x1="0"
       y1="0"
       x2="1"
       y2="0"
       gradientUnits="userSpaceOnUse"
       gradientTransform="matrix(0,-20.531771,-20.531771,0,145.28288,435.57355)"
       spreadMethod="pad"
       id="linearGradient168"><stop
         style="stop-opacity:1;stop-color:#60d639"
         offset="0"
         id="stop162" /><stop
         style="stop-opacity:1;stop-color:#60d639"
         offset="0.02824881"
         id="stop164" /><stop
         style="stop-opacity:1;stop-color:#2dc63a"
         offset="1"
         id="stop166" /></linearGradient><clipPath
       clipPathUnits="userSpaceOnUse"
       id="clipPath178"><path
         d="m 153.552,429.012 c -0.778,-0.141 -1.368,-0.283 -1.773,-0.423 v 0 l 0.397,-2.594 c 0.387,0.142 0.89,0.265 1.507,0.371 v 0 c 0.617,0.106 1.297,0.158 2.038,0.158 v 0 c 0.546,0 1,-0.07 1.362,-0.211 v 0 c 0.361,-0.141 0.653,-0.339 0.873,-0.596 v 0 c 0.221,-0.256 0.375,-0.551 0.464,-0.886 v 0 c 0.087,-0.334 0.132,-0.688 0.132,-1.058 v 0 -0.529 c -0.442,0.106 -0.856,0.181 -1.244,0.225 v 0 c -0.389,0.043 -0.758,0.066 -1.111,0.066 v 0 c -0.759,0 -1.487,-0.075 -2.183,-0.225 v 0 c -0.697,-0.15 -1.31,-0.397 -1.838,-0.741 v 0 c -0.53,-0.344 -0.949,-0.789 -1.258,-1.336 v 0 c -0.308,-0.547 -0.462,-1.217 -0.462,-2.011 v 0 c 0,-0.829 0.136,-1.526 0.41,-2.09 v 0 c 0.273,-0.565 0.652,-1.023 1.138,-1.376 v 0 c 0.484,-0.353 1.071,-0.609 1.758,-0.767 v 0 c 0.689,-0.159 1.447,-0.238 2.276,-0.238 v 0 c 1.252,0 2.377,0.075 3.374,0.225 v 0 c 0.996,0.149 1.741,0.278 2.235,0.383 v 0 8.388 c 0,0.811 -0.093,1.556 -0.277,2.236 v 0 c -0.185,0.678 -0.494,1.256 -0.927,1.733 v 0 c -0.432,0.476 -1.01,0.846 -1.733,1.111 v 0 c -0.723,0.264 -1.614,0.396 -2.672,0.396 v 0 c -0.882,0 -1.711,-0.071 -2.486,-0.211 m 0.82,-11.285 c -0.477,0.291 -0.715,0.815 -0.715,1.575 v 0 c 0,0.387 0.088,0.709 0.265,0.966 v 0 c 0.176,0.254 0.409,0.453 0.701,0.594 v 0 c 0.29,0.142 0.617,0.239 0.979,0.291 v 0 c 0.361,0.053 0.718,0.08 1.071,0.08 v 0 c 0.406,0 0.777,-0.027 1.111,-0.08 v 0 c 0.335,-0.052 0.591,-0.105 0.768,-0.158 v 0 -3.545 c -0.512,-0.106 -1.262,-0.16 -2.249,-0.16 v 0 c -0.812,0 -1.455,0.146 -1.931,0.437"
         id="path176"
         inkscape:connector-curvature="0" /></clipPath><linearGradient
       x1="0"
       y1="0"
       x2="1"
       y2="0"
       gradientUnits="userSpaceOnUse"
       gradientTransform="matrix(0,-14.472871,-14.472871,0,156.0513,429.22354)"
       spreadMethod="pad"
       id="linearGradient190"><stop
         style="stop-opacity:1;stop-color:#60d639"
         offset="0"
         id="stop184" /><stop
         style="stop-opacity:1;stop-color:#60d639"
         offset="0.02824881"
         id="stop186" /><stop
         style="stop-opacity:1;stop-color:#2dc63a"
         offset="1"
         id="stop188" /></linearGradient><clipPath
       clipPathUnits="userSpaceOnUse"
       id="clipPath200"><path
         d="m 167.878,428.866 c -0.926,-0.202 -1.698,-0.419 -2.315,-0.648 v 0 -13.176 h 3.201 v 11.086 c 0.16,0.053 0.437,0.115 0.834,0.185 v 0 c 0.397,0.07 0.771,0.106 1.125,0.106 v 0 c 0.617,0 1.159,-0.049 1.627,-0.146 v 0 c 0.467,-0.097 0.833,-0.19 1.098,-0.278 v 0 l 0.555,2.699 c -0.158,0.053 -0.371,0.11 -0.635,0.172 v 0 c -0.265,0.062 -0.538,0.114 -0.82,0.159 v 0 c -0.283,0.044 -0.564,0.08 -0.846,0.106 v 0 c -0.283,0.027 -0.529,0.039 -0.742,0.039 v 0 c -1.128,0 -2.156,-0.101 -3.082,-0.304"
         id="path198"
         inkscape:connector-curvature="0" /></clipPath><linearGradient
       x1="0"
       y1="0"
       x2="1"
       y2="0"
       gradientUnits="userSpaceOnUse"
       gradientTransform="matrix(0,-14.128735,-14.128735,0,169.78317,429.1705)"
       spreadMethod="pad"
       id="linearGradient212"><stop
         style="stop-opacity:1;stop-color:#60d639"
         offset="0"
         id="stop206" /><stop
         style="stop-opacity:1;stop-color:#60d639"
         offset="0.02824881"
         id="stop208" /><stop
         style="stop-opacity:1;stop-color:#2dc63a"
         offset="1"
         id="stop210" /></linearGradient><clipPath
       clipPathUnits="userSpaceOnUse"
       id="clipPath222"><path
         d="m 188.595,429.038 c -0.414,-0.088 -0.807,-0.199 -1.177,-0.33 v 0 c -0.371,-0.132 -0.706,-0.278 -1.006,-0.437 v 0 c -0.3,-0.159 -0.547,-0.308 -0.74,-0.45 v 0 c -0.406,0.406 -0.913,0.732 -1.521,0.98 v 0 c -0.609,0.246 -1.39,0.369 -2.342,0.369 v 0 c -1.112,0 -2.166,-0.079 -3.163,-0.237 v 0 c -0.996,-0.16 -1.802,-0.327 -2.421,-0.503 v 0 -13.388 h 3.203 v 11.166 c 0.211,0.035 0.529,0.079 0.952,0.132 v 0 c 0.423,0.052 0.811,0.079 1.164,0.079 v 0 c 0.988,0 1.663,-0.322 2.024,-0.966 v 0 c 0.361,-0.644 0.542,-1.689 0.542,-3.135 v 0 -7.276 h 3.202 v 7.647 c 0,0.564 -0.027,1.092 -0.08,1.586 v 0 c -0.053,0.494 -0.15,0.962 -0.29,1.403 v 0 c 0.228,0.159 0.573,0.322 1.031,0.49 v 0 c 0.459,0.167 0.943,0.251 1.455,0.251 v 0 c 1.006,0 1.685,-0.322 2.038,-0.966 v 0 c 0.353,-0.644 0.529,-1.689 0.529,-3.135 v 0 -7.276 h 3.202 v 7.779 c 0,0.934 -0.076,1.795 -0.226,2.579 v 0 c -0.149,0.785 -0.423,1.456 -0.819,2.011 v 0 c -0.397,0.555 -0.944,0.988 -1.641,1.297 v 0 c -0.697,0.308 -1.583,0.462 -2.659,0.462 v 0 c -0.424,0 -0.843,-0.044 -1.257,-0.132"
         id="path220"
         inkscape:connector-curvature="0" /></clipPath><linearGradient
       x1="0"
       y1="0"
       x2="1"
       y2="0"
       gradientUnits="userSpaceOnUse"
       gradientTransform="matrix(0,-14.128735,-14.128735,0,185.7112,429.1705)"
       spreadMethod="pad"
       id="linearGradient234"><stop
         style="stop-opacity:1;stop-color:#60d639"
         offset="0"
         id="stop228" /><stop
         style="stop-opacity:1;stop-color:#60d639"
         offset="0.02824881"
         id="stop230" /><stop
         style="stop-opacity:1;stop-color:#2dc63a"
         offset="1"
         id="stop232" /></linearGradient><clipPath
       clipPathUnits="userSpaceOnUse"
       id="clipPath244"><path
         d="m 199.324,434.382 c -0.388,-0.352 -0.582,-0.838 -0.582,-1.454 v 0 c 0,-0.6 0.194,-1.076 0.582,-1.429 v 0 c 0.388,-0.353 0.855,-0.53 1.402,-0.53 v 0 c 0.529,0 0.988,0.177 1.376,0.53 v 0 c 0.388,0.353 0.582,0.829 0.582,1.429 v 0 c 0,0.616 -0.194,1.102 -0.582,1.454 v 0 c -0.388,0.354 -0.847,0.529 -1.376,0.529 v 0 c -0.547,0 -1.014,-0.175 -1.402,-0.529 m -0.185,-19.34 h 3.202 v 13.837 h -3.202 z"
         id="path242"
         inkscape:connector-curvature="0" /></clipPath><linearGradient
       x1="0"
       y1="0"
       x2="1"
       y2="0"
       gradientUnits="userSpaceOnUse"
       gradientTransform="matrix(0,-19.87023,-19.87023,0,200.71291,434.91202)"
       spreadMethod="pad"
       id="linearGradient256"><stop
         style="stop-opacity:1;stop-color:#60d639"
         offset="0"
         id="stop250" /><stop
         style="stop-opacity:1;stop-color:#60d639"
         offset="0.02824881"
         id="stop252" /><stop
         style="stop-opacity:1;stop-color:#2dc63a"
         offset="1"
         id="stop254" /></linearGradient><clipPath
       clipPathUnits="userSpaceOnUse"
       id="clipPath266"><path
         d="m 208.822,428.933 c -0.988,-0.16 -1.791,-0.327 -2.408,-0.503 v 0 -13.388 h 3.202 v 11.166 c 0.212,0.035 0.538,0.079 0.98,0.132 v 0 c 0.44,0.052 0.863,0.079 1.269,0.079 v 0 c 0.547,0 1.009,-0.075 1.389,-0.225 v 0 c 0.379,-0.15 0.679,-0.388 0.9,-0.715 v 0 c 0.22,-0.326 0.379,-0.749 0.476,-1.269 v 0 c 0.097,-0.521 0.145,-1.151 0.145,-1.892 v 0 -7.276 h 3.201 v 7.779 c 0,0.934 -0.091,1.795 -0.278,2.579 v 0 c -0.184,0.785 -0.502,1.456 -0.951,2.011 v 0 c -0.45,0.555 -1.055,0.988 -1.813,1.297 v 0 c -0.758,0.308 -1.702,0.462 -2.831,0.462 v 0 c -1.2,0 -2.293,-0.079 -3.281,-0.237"
         id="path264"
         inkscape:connector-curvature="0" /></clipPath><linearGradient
       x1="0"
       y1="0"
       x2="1"
       y2="0"
       gradientUnits="userSpaceOnUse"
       gradientTransform="matrix(0,-14.128735,-14.128735,0,212.19557,429.1705)"
       spreadMethod="pad"
       id="linearGradient278"><stop
         style="stop-opacity:1;stop-color:#60d639"
         offset="0"
         id="stop272" /><stop
         style="stop-opacity:1;stop-color:#60d639"
         offset="0.02824881"
         id="stop274" /><stop
         style="stop-opacity:1;stop-color:#2dc63a"
         offset="1"
         id="stop276" /></linearGradient><clipPath
       clipPathUnits="userSpaceOnUse"
       id="clipPath288"><path
         d="m 225.094,428.667 c -0.847,-0.335 -1.565,-0.802 -2.157,-1.402 v 0 c -0.591,-0.599 -1.04,-1.322 -1.349,-2.169 v 0 c -0.309,-0.847 -0.463,-1.773 -0.463,-2.778 v 0 c 0,-1.077 0.145,-2.024 0.436,-2.844 v 0 c 0.292,-0.82 0.698,-1.504 1.218,-2.051 v 0 c 0.52,-0.547 1.146,-0.962 1.878,-1.243 v 0 c 0.732,-0.283 1.539,-0.424 2.421,-0.424 v 0 c 0.671,0 1.265,0.08 1.787,0.238 v 0 c 0.519,0.159 0.938,0.318 1.256,0.476 v 0 -0.529 c 0,-1.04 -0.274,-1.826 -0.82,-2.354 v 0 c -0.547,-0.529 -1.464,-0.794 -2.752,-0.794 v 0 c -0.811,0 -1.565,0.07 -2.262,0.212 v 0 c -0.697,0.141 -1.318,0.325 -1.866,0.555 v 0 l -0.582,-2.725 c 0.653,-0.229 1.38,-0.414 2.184,-0.556 v 0 c 0.801,-0.141 1.627,-0.211 2.473,-0.211 v 0 c 2.311,0 4.026,0.511 5.147,1.534 v 0 c 1.119,1.024 1.679,2.637 1.679,4.842 v 0 11.986 c -0.652,0.176 -1.446,0.343 -2.381,0.503 v 0 c -0.934,0.158 -1.923,0.237 -2.964,0.237 v 0 c -1.075,0 -2.037,-0.167 -2.883,-0.503 m 0.198,-9.326 c -0.591,0.626 -0.886,1.618 -0.886,2.977 v 0 c 0,1.252 0.309,2.262 0.926,3.029 v 0 c 0.617,0.768 1.508,1.151 2.672,1.151 v 0 c 0.511,0 0.935,-0.022 1.27,-0.066 v 0 c 0.336,-0.044 0.617,-0.092 0.847,-0.145 v 0 -7.171 c -0.283,-0.194 -0.648,-0.361 -1.098,-0.503 v 0 c -0.45,-0.141 -0.931,-0.211 -1.442,-0.211 v 0 c -0.935,0 -1.698,0.312 -2.289,0.939"
         id="path286"
         inkscape:connector-curvature="0" /></clipPath><linearGradient
       x1="0"
       y1="0"
       x2="1"
       y2="0"
       gradientUnits="userSpaceOnUse"
       gradientTransform="matrix(0,-19.103027,-19.103027,0,227.2238,429.1705)"
       spreadMethod="pad"
       id="linearGradient300"><stop
         style="stop-opacity:1;stop-color:#60d639"
         offset="0"
         id="stop294" /><stop
         style="stop-opacity:1;stop-color:#60d639"
         offset="0.02824881"
         id="stop296" /><stop
         style="stop-opacity:1;stop-color:#2dc63a"
         offset="1"
         id="stop298" /></linearGradient><clipPath
       clipPathUnits="userSpaceOnUse"
       id="clipPath310"><path
         d="m 368.095,557.603 c -31.9,0 -58,-26.1 -58,-58 v 0 -407.094 c 0,-31.899 26.1,-58 58,-58 v 0 h 139.118 c 31.9,0 58,26.101 58,58 v 0 407.094 c 0,31.9 -26.1,58 -58,58 v 0 z"
         id="path308"
         inkscape:connector-curvature="0" /></clipPath><linearGradient
       x1="0"
       y1="0"
       x2="1"
       y2="0"
       gradientUnits="userSpaceOnUse"
       gradientTransform="matrix(269.01147,-465.94153,-465.94153,-269.01147,303.14841,529.02698)"
       spreadMethod="pad"
       id="linearGradient322"><stop
         style="stop-opacity:1;stop-color:#072232"
         offset="0"
         id="stop316" /><stop
         style="stop-opacity:1;stop-color:#072232"
         offset="0.44099726"
         id="stop318" /><stop
         style="stop-opacity:1;stop-color:#000000"
         offset="1"
         id="stop320" /></linearGradient><clipPath
       clipPathUnits="userSpaceOnUse"
       id="clipPath356"><path
         d="M 0,577.874 H 813.353 V 0 H 0 Z"
         id="path354"
         inkscape:connector-curvature="0" /></clipPath><clipPath
       clipPathUnits="userSpaceOnUse"
       id="clipPath404"><path
         d="M 0,577.874 H 813.353 V 0 H 0 Z"
         id="path402"
         inkscape:connector-curvature="0" /></clipPath><clipPath
       clipPathUnits="userSpaceOnUse"
       id="clipPath518"><path
         d="M 0,577.874 H 813.353 V 0 H 0 Z"
         id="path516"
         inkscape:connector-curvature="0" /></clipPath><clipPath
       clipPathUnits="userSpaceOnUse"
       id="clipPath558"><path
         d="m 364.105,428.708 c -0.812,-0.345 -1.513,-0.834 -2.104,-1.469 v 0 c -0.591,-0.635 -1.049,-1.398 -1.376,-2.289 v 0 c -0.326,-0.891 -0.489,-1.882 -0.489,-2.976 v 0 c 0,-1.094 0.163,-2.091 0.489,-2.99 v 0 c 0.327,-0.9 0.781,-1.667 1.363,-2.302 v 0 c 0.582,-0.635 1.279,-1.129 2.09,-1.481 v 0 c 0.812,-0.353 1.711,-0.53 2.699,-0.53 v 0 c 0.987,0 1.892,0.177 2.713,0.53 v 0 c 0.819,0.352 1.521,0.846 2.103,1.481 v 0 c 0.582,0.635 1.032,1.402 1.349,2.302 v 0 c 0.318,0.899 0.476,1.896 0.476,2.99 v 0 c 0,1.094 -0.163,2.085 -0.49,2.976 v 0 c -0.325,0.891 -0.78,1.654 -1.361,2.289 v 0 c -0.583,0.635 -1.284,1.124 -2.104,1.469 v 0 c -0.82,0.344 -1.716,0.515 -2.686,0.515 v 0 c -0.97,0 -1.861,-0.171 -2.672,-0.515 m 0.198,-10.041 c -0.591,0.81 -0.886,1.913 -0.886,3.307 v 0 c 0,1.376 0.295,2.465 0.886,3.268 v 0 c 0.59,0.802 1.416,1.203 2.474,1.203 v 0 c 1.059,0 1.883,-0.401 2.474,-1.203 v 0 c 0.59,-0.803 0.887,-1.892 0.887,-3.268 v 0 c 0,-1.394 -0.297,-2.497 -0.887,-3.307 v 0 c -0.591,-0.811 -1.415,-1.217 -2.474,-1.217 v 0 c -1.058,0 -1.884,0.406 -2.474,1.217"
         id="path556"
         inkscape:connector-curvature="0" /></clipPath><linearGradient
       x1="0"
       y1="0"
       x2="1"
       y2="0"
       gradientUnits="userSpaceOnUse"
       gradientTransform="matrix(0,-14.552222,-14.552222,0,366.77716,429.22354)"
       spreadMethod="pad"
       id="linearGradient570"><stop
         style="stop-opacity:1;stop-color:#60d639"
         offset="0"
         id="stop564" /><stop
         style="stop-opacity:1;stop-color:#60d639"
         offset="0.02824881"
         id="stop566" /><stop
         style="stop-opacity:1;stop-color:#2dc63a"
         offset="1"
         id="stop568" /></linearGradient><clipPath
       clipPathUnits="userSpaceOnUse"
       id="clipPath580"><path
         d="m 379.133,428.933 c -0.952,-0.16 -1.755,-0.327 -2.407,-0.503 v 0 -18.283 h 3.201 v 5.37 c 0.353,-0.193 0.803,-0.37 1.349,-0.528 v 0 c 0.547,-0.159 1.147,-0.238 1.799,-0.238 v 0 c 0.97,0 1.839,0.176 2.606,0.529 v 0 c 0.768,0.353 1.407,0.847 1.918,1.481 v 0 c 0.512,0.636 0.905,1.393 1.178,2.276 v 0 c 0.274,0.881 0.411,1.852 0.411,2.911 v 0 c 0,1.111 -0.164,2.111 -0.49,3.002 v 0 c -0.327,0.891 -0.794,1.649 -1.402,2.275 v 0 c -0.609,0.627 -1.345,1.107 -2.21,1.442 v 0 c -0.864,0.336 -1.843,0.503 -2.937,0.503 v 0 c -1.058,0 -2.063,-0.079 -3.016,-0.237 m 1.919,-11.179 c -0.468,0.167 -0.843,0.348 -1.125,0.543 v 0 7.911 c 0.317,0.087 0.64,0.145 0.966,0.171 v 0 c 0.325,0.027 0.639,0.04 0.939,0.04 v 0 c 1.428,0 2.465,-0.397 3.109,-1.191 v 0 c 0.644,-0.793 0.965,-1.905 0.965,-3.333 v 0 c 0,-1.341 -0.269,-2.409 -0.807,-3.202 v 0 c -0.537,-0.794 -1.389,-1.19 -2.553,-1.19 v 0 c -0.529,0 -1.028,0.083 -1.494,0.251"
         id="path578"
         inkscape:connector-curvature="0" /></clipPath><linearGradient
       x1="0"
       y1="0"
       x2="1"
       y2="0"
       gradientUnits="userSpaceOnUse"
       gradientTransform="matrix(0,-19.023466,-19.023466,0,382.9563,429.1705)"
       spreadMethod="pad"
       id="linearGradient592"><stop
         style="stop-opacity:1;stop-color:#60d639"
         offset="0"
         id="stop586" /><stop
         style="stop-opacity:1;stop-color:#60d639"
         offset="0.02824881"
         id="stop588" /><stop
         style="stop-opacity:1;stop-color:#2dc63a"
         offset="1"
         id="stop590" /></linearGradient><clipPath
       clipPathUnits="userSpaceOnUse"
       id="clipPath602"><path
         d="m 395.775,428.761 c -0.776,-0.309 -1.464,-0.768 -2.063,-1.376 v 0 c -0.601,-0.609 -1.082,-1.372 -1.442,-2.289 v 0 c -0.361,-0.918 -0.542,-1.984 -0.542,-3.201 v 0 c 0,-1.042 0.14,-1.998 0.423,-2.871 v 0 c 0.281,-0.873 0.714,-1.632 1.297,-2.275 v 0 c 0.581,-0.645 1.322,-1.148 2.222,-1.509 v 0 c 0.9,-0.362 1.957,-0.542 3.175,-0.542 v 0 c 0.475,0 0.943,0.026 1.402,0.079 v 0 c 0.458,0.053 0.886,0.119 1.283,0.199 v 0 c 0.396,0.079 0.749,0.167 1.059,0.264 v 0 c 0.308,0.096 0.551,0.189 0.727,0.277 v 0 l -0.424,2.62 c -0.37,-0.158 -0.877,-0.308 -1.521,-0.449 v 0 c -0.643,-0.142 -1.353,-0.212 -2.13,-0.212 v 0 c -1.323,0 -2.333,0.304 -3.03,0.913 v 0 c -0.696,0.609 -1.089,1.468 -1.177,2.58 v 0 h 9.128 c 0.018,0.176 0.032,0.374 0.04,0.595 v 0 c 0.009,0.22 0.014,0.419 0.014,0.595 v 0 c 0,2.346 -0.535,4.11 -1.602,5.292 v 0 c -1.067,1.181 -2.552,1.772 -4.458,1.772 v 0 c -0.811,0 -1.605,-0.154 -2.381,-0.462 m -0.423,-4.247 c 0.141,0.388 0.339,0.731 0.595,1.032 v 0 c 0.256,0.3 0.569,0.542 0.94,0.727 v 0 c 0.369,0.186 0.802,0.278 1.295,0.278 v 0 c 0.477,0 0.887,-0.084 1.231,-0.252 v 0 c 0.344,-0.167 0.635,-0.396 0.873,-0.687 v 0 c 0.238,-0.292 0.419,-0.636 0.543,-1.032 v 0 c 0.123,-0.396 0.185,-0.816 0.185,-1.257 v 0 h -5.954 c 0.054,0.406 0.151,0.803 0.292,1.191"
         id="path600"
         inkscape:connector-curvature="0" /></clipPath><linearGradient
       x1="0"
       y1="0"
       x2="1"
       y2="0"
       gradientUnits="userSpaceOnUse"
       gradientTransform="matrix(0,-14.525702,-14.525702,0,397.97137,429.22354)"
       spreadMethod="pad"
       id="linearGradient614"><stop
         style="stop-opacity:1;stop-color:#60d639"
         offset="0"
         id="stop608" /><stop
         style="stop-opacity:1;stop-color:#60d639"
         offset="0.02824881"
         id="stop610" /><stop
         style="stop-opacity:1;stop-color:#2dc63a"
         offset="1"
         id="stop612" /></linearGradient><clipPath
       clipPathUnits="userSpaceOnUse"
       id="clipPath624"><path
         d="m 410.009,428.933 c -0.988,-0.16 -1.79,-0.327 -2.407,-0.503 v 0 -13.388 h 3.202 v 11.166 c 0.212,0.035 0.537,0.079 0.978,0.132 v 0 c 0.441,0.052 0.864,0.079 1.27,0.079 v 0 c 0.547,0 1.01,-0.075 1.389,-0.225 v 0 c 0.379,-0.15 0.679,-0.388 0.9,-0.715 v 0 c 0.22,-0.326 0.38,-0.749 0.476,-1.269 v 0 c 0.097,-0.521 0.146,-1.151 0.146,-1.892 v 0 -7.276 h 3.201 v 7.779 c 0,0.934 -0.092,1.795 -0.277,2.579 v 0 c -0.185,0.785 -0.503,1.456 -0.952,2.011 v 0 c -0.45,0.555 -1.055,0.988 -1.813,1.297 v 0 c -0.759,0.308 -1.704,0.462 -2.831,0.462 v 0 c -1.2,0 -2.294,-0.079 -3.282,-0.237"
         id="path622"
         inkscape:connector-curvature="0" /></clipPath><linearGradient
       x1="0"
       y1="0"
       x2="1"
       y2="0"
       gradientUnits="userSpaceOnUse"
       gradientTransform="matrix(0,-14.128735,-14.128735,0,413.38321,429.1705)"
       spreadMethod="pad"
       id="linearGradient636"><stop
         style="stop-opacity:1;stop-color:#60d639"
         offset="0"
         id="stop630" /><stop
         style="stop-opacity:1;stop-color:#60d639"
         offset="0.02824881"
         id="stop632" /><stop
         style="stop-opacity:1;stop-color:#2dc63a"
         offset="1"
         id="stop634" /></linearGradient><clipPath
       clipPathUnits="userSpaceOnUse"
       id="clipPath646"><path
         d="m 424.482,434.052 c -0.935,-1.014 -1.402,-2.412 -1.402,-4.193 v 0 -14.817 h 3.201 v 11.166 h 5.028 v 2.672 h -5.028 v 0.926 c 0,0.441 0.045,0.85 0.133,1.23 v 0 c 0.088,0.379 0.237,0.701 0.45,0.966 v 0 c 0.211,0.264 0.494,0.471 0.846,0.622 v 0 c 0.352,0.149 0.785,0.225 1.297,0.225 v 0 c 0.458,0 0.885,-0.045 1.283,-0.133 v 0 c 0.397,-0.089 0.745,-0.203 1.045,-0.343 v 0 l 0.608,2.645 c -0.282,0.106 -0.704,0.225 -1.27,0.357 v 0 c -0.564,0.132 -1.217,0.199 -1.957,0.199 v 0 c -1.888,0 -3.299,-0.508 -4.234,-1.522"
         id="path644"
         inkscape:connector-curvature="0" /></clipPath><linearGradient
       x1="0"
       y1="0"
       x2="1"
       y2="0"
       gradientUnits="userSpaceOnUse"
       gradientTransform="matrix(0,-20.531771,-20.531771,0,427.51172,435.57355)"
       spreadMethod="pad"
       id="linearGradient658"><stop
         style="stop-opacity:1;stop-color:#60d639"
         offset="0"
         id="stop652" /><stop
         style="stop-opacity:1;stop-color:#60d639"
         offset="0.02824881"
         id="stop654" /><stop
         style="stop-opacity:1;stop-color:#2dc63a"
         offset="1"
         id="stop656" /></linearGradient><clipPath
       clipPathUnits="userSpaceOnUse"
       id="clipPath668"><path
         d="m 435.78,429.012 c -0.776,-0.141 -1.367,-0.283 -1.773,-0.423 v 0 l 0.397,-2.594 c 0.388,0.142 0.891,0.265 1.508,0.371 v 0 c 0.618,0.106 1.297,0.158 2.037,0.158 v 0 c 0.547,0 1.001,-0.07 1.363,-0.211 v 0 c 0.361,-0.141 0.653,-0.339 0.873,-0.596 v 0 c 0.22,-0.256 0.375,-0.551 0.463,-0.886 v 0 c 0.088,-0.334 0.132,-0.688 0.132,-1.058 v 0 -0.529 c -0.441,0.106 -0.856,0.181 -1.242,0.225 v 0 c -0.389,0.043 -0.76,0.066 -1.112,0.066 v 0 c -0.759,0 -1.487,-0.075 -2.183,-0.225 v 0 c -0.697,-0.15 -1.309,-0.397 -1.839,-0.741 v 0 c -0.529,-0.344 -0.948,-0.789 -1.257,-1.336 v 0 c -0.308,-0.547 -0.462,-1.217 -0.462,-2.011 v 0 c 0,-0.829 0.135,-1.526 0.409,-2.09 v 0 c 0.273,-0.565 0.653,-1.023 1.138,-1.376 v 0 c 0.485,-0.353 1.072,-0.609 1.759,-0.767 v 0 c 0.689,-0.159 1.447,-0.238 2.276,-0.238 v 0 c 1.253,0 2.377,0.075 3.374,0.225 v 0 c 0.996,0.149 1.74,0.278 2.235,0.383 v 0 8.388 c 0,0.811 -0.093,1.556 -0.278,2.236 v 0 c -0.185,0.678 -0.494,1.256 -0.926,1.733 v 0 c -0.432,0.476 -1.01,0.846 -1.732,1.111 v 0 c -0.724,0.264 -1.615,0.396 -2.673,0.396 v 0 c -0.882,0 -1.711,-0.071 -2.487,-0.211 m 0.821,-11.285 c -0.477,0.291 -0.716,0.815 -0.716,1.575 v 0 c 0,0.387 0.088,0.709 0.266,0.966 v 0 c 0.175,0.254 0.409,0.453 0.701,0.594 v 0 c 0.291,0.142 0.616,0.239 0.978,0.291 v 0 c 0.361,0.053 0.718,0.08 1.072,0.08 v 0 c 0.406,0 0.776,-0.027 1.111,-0.08 v 0 c 0.335,-0.052 0.59,-0.105 0.767,-0.158 v 0 -3.545 c -0.512,-0.106 -1.26,-0.16 -2.249,-0.16 v 0 c -0.812,0 -1.455,0.146 -1.93,0.437"
         id="path666"
         inkscape:connector-curvature="0" /></clipPath><linearGradient
       x1="0"
       y1="0"
       x2="1"
       y2="0"
       gradientUnits="userSpaceOnUse"
       gradientTransform="matrix(0,-14.472871,-14.472871,0,438.28012,429.22354)"
       spreadMethod="pad"
       id="linearGradient680"><stop
         style="stop-opacity:1;stop-color:#60d639"
         offset="0"
         id="stop674" /><stop
         style="stop-opacity:1;stop-color:#60d639"
         offset="0.02824881"
         id="stop676" /><stop
         style="stop-opacity:1;stop-color:#2dc63a"
         offset="1"
         id="stop678" /></linearGradient><clipPath
       clipPathUnits="userSpaceOnUse"
       id="clipPath690"><path
         d="m 450.107,428.866 c -0.926,-0.202 -1.698,-0.419 -2.315,-0.648 v 0 -13.176 h 3.202 v 11.086 c 0.158,0.053 0.436,0.115 0.833,0.185 v 0 c 0.397,0.07 0.771,0.106 1.124,0.106 v 0 c 0.617,0 1.16,-0.049 1.627,-0.146 v 0 c 0.468,-0.097 0.834,-0.19 1.098,-0.278 v 0 l 0.556,2.699 c -0.159,0.053 -0.37,0.11 -0.635,0.172 v 0 c -0.264,0.062 -0.538,0.114 -0.82,0.159 v 0 c -0.282,0.044 -0.565,0.08 -0.847,0.106 v 0 c -0.282,0.027 -0.529,0.039 -0.74,0.039 v 0 c -1.13,0 -2.157,-0.101 -3.083,-0.304"
         id="path688"
         inkscape:connector-curvature="0" /></clipPath><linearGradient
       x1="0"
       y1="0"
       x2="1"
       y2="0"
       gradientUnits="userSpaceOnUse"
       gradientTransform="matrix(0,-14.128735,-14.128735,0,452.01202,429.1705)"
       spreadMethod="pad"
       id="linearGradient702"><stop
         style="stop-opacity:1;stop-color:#60d639"
         offset="0"
         id="stop696" /><stop
         style="stop-opacity:1;stop-color:#60d639"
         offset="0.02824881"
         id="stop698" /><stop
         style="stop-opacity:1;stop-color:#2dc63a"
         offset="1"
         id="stop700" /></linearGradient><clipPath
       clipPathUnits="userSpaceOnUse"
       id="clipPath712"><path
         d="m 470.824,429.038 c -0.415,-0.088 -0.807,-0.199 -1.178,-0.33 v 0 c -0.37,-0.132 -0.705,-0.278 -1.004,-0.437 v 0 c -0.301,-0.159 -0.548,-0.308 -0.742,-0.45 v 0 c -0.406,0.406 -0.913,0.732 -1.521,0.98 v 0 c -0.608,0.246 -1.389,0.369 -2.342,0.369 v 0 c -1.111,0 -2.165,-0.079 -3.161,-0.237 v 0 c -0.997,-0.16 -1.804,-0.327 -2.42,-0.503 v 0 -13.388 h 3.2 v 11.166 c 0.212,0.035 0.529,0.079 0.952,0.132 v 0 c 0.424,0.052 0.812,0.079 1.165,0.079 v 0 c 0.988,0 1.663,-0.322 2.024,-0.966 v 0 c 0.362,-0.644 0.542,-1.689 0.542,-3.135 v 0 -7.276 h 3.202 v 7.647 c 0,0.564 -0.026,1.092 -0.079,1.586 v 0 c -0.053,0.494 -0.151,0.962 -0.292,1.403 v 0 c 0.23,0.159 0.573,0.322 1.032,0.49 v 0 c 0.459,0.167 0.944,0.251 1.456,0.251 v 0 c 1.005,0 1.683,-0.322 2.036,-0.966 v 0 c 0.354,-0.644 0.53,-1.689 0.53,-3.135 v 0 -7.276 h 3.202 v 7.779 c 0,0.934 -0.075,1.795 -0.226,2.579 v 0 c -0.15,0.785 -0.422,1.456 -0.82,2.011 v 0 c -0.397,0.555 -0.943,0.988 -1.64,1.297 v 0 c -0.697,0.308 -1.584,0.462 -2.659,0.462 v 0 c -0.423,0 -0.843,-0.044 -1.257,-0.132"
         id="path710"
         inkscape:connector-curvature="0" /></clipPath><linearGradient
       x1="0"
       y1="0"
       x2="1"
       y2="0"
       gradientUnits="userSpaceOnUse"
       gradientTransform="matrix(0,-14.128735,-14.128735,0,467.94003,429.1705)"
       spreadMethod="pad"
       id="linearGradient724"><stop
         style="stop-opacity:1;stop-color:#60d639"
         offset="0"
         id="stop718" /><stop
         style="stop-opacity:1;stop-color:#60d639"
         offset="0.02824881"
         id="stop720" /><stop
         style="stop-opacity:1;stop-color:#2dc63a"
         offset="1"
         id="stop722" /></linearGradient><clipPath
       clipPathUnits="userSpaceOnUse"
       id="clipPath734"><path
         d="m 481.553,434.382 c -0.388,-0.352 -0.582,-0.838 -0.582,-1.454 v 0 c 0,-0.6 0.194,-1.076 0.582,-1.429 v 0 c 0.387,-0.353 0.855,-0.53 1.402,-0.53 v 0 c 0.529,0 0.988,0.177 1.376,0.53 v 0 c 0.387,0.353 0.582,0.829 0.582,1.429 v 0 c 0,0.616 -0.195,1.102 -0.582,1.454 v 0 c -0.388,0.354 -0.847,0.529 -1.376,0.529 v 0 c -0.547,0 -1.015,-0.175 -1.402,-0.529 m -0.186,-19.34 h 3.202 v 13.837 h -3.202 z"
         id="path732"
         inkscape:connector-curvature="0" /></clipPath><linearGradient
       x1="0"
       y1="0"
       x2="1"
       y2="0"
       gradientUnits="userSpaceOnUse"
       gradientTransform="matrix(0,-19.87023,-19.87023,0,482.94174,434.91202)"
       spreadMethod="pad"
       id="linearGradient746"><stop
         style="stop-opacity:1;stop-color:#60d639"
         offset="0"
         id="stop740" /><stop
         style="stop-opacity:1;stop-color:#60d639"
         offset="0.02824881"
         id="stop742" /><stop
         style="stop-opacity:1;stop-color:#2dc63a"
         offset="1"
         id="stop744" /></linearGradient><clipPath
       clipPathUnits="userSpaceOnUse"
       id="clipPath756"><path
         d="m 491.051,428.933 c -0.988,-0.16 -1.79,-0.327 -2.408,-0.503 v 0 -13.388 h 3.202 v 11.166 c 0.212,0.035 0.538,0.079 0.979,0.132 v 0 c 0.441,0.052 0.864,0.079 1.27,0.079 v 0 c 0.547,0 1.009,-0.075 1.388,-0.225 v 0 c 0.38,-0.15 0.679,-0.388 0.9,-0.715 v 0 c 0.221,-0.326 0.379,-0.749 0.476,-1.269 v 0 c 0.097,-0.521 0.146,-1.151 0.146,-1.892 v 0 -7.276 h 3.202 v 7.779 c 0,0.934 -0.093,1.795 -0.279,2.579 v 0 c -0.184,0.785 -0.503,1.456 -0.952,2.011 v 0 c -0.45,0.555 -1.054,0.988 -1.812,1.297 v 0 c -0.759,0.308 -1.702,0.462 -2.831,0.462 v 0 c -1.2,0 -2.293,-0.079 -3.281,-0.237"
         id="path754"
         inkscape:connector-curvature="0" /></clipPath><linearGradient
       x1="0"
       y1="0"
       x2="1"
       y2="0"
       gradientUnits="userSpaceOnUse"
       gradientTransform="matrix(0,-14.128735,-14.128735,0,494.42441,429.1705)"
       spreadMethod="pad"
       id="linearGradient768"><stop
         style="stop-opacity:1;stop-color:#60d639"
         offset="0"
         id="stop762" /><stop
         style="stop-opacity:1;stop-color:#60d639"
         offset="0.02824881"
         id="stop764" /><stop
         style="stop-opacity:1;stop-color:#2dc63a"
         offset="1"
         id="stop766" /></linearGradient><clipPath
       clipPathUnits="userSpaceOnUse"
       id="clipPath778"><path
         d="m 507.323,428.667 c -0.847,-0.335 -1.566,-0.802 -2.157,-1.402 v 0 c -0.591,-0.599 -1.041,-1.322 -1.349,-2.169 v 0 c -0.309,-0.847 -0.463,-1.773 -0.463,-2.778 v 0 c 0,-1.077 0.145,-2.024 0.436,-2.844 v 0 c 0.292,-0.82 0.697,-1.504 1.218,-2.051 v 0 c 0.519,-0.547 1.147,-0.962 1.877,-1.243 v 0 c 0.733,-0.283 1.539,-0.424 2.421,-0.424 v 0 c 0.672,0 1.267,0.08 1.787,0.238 v 0 c 0.52,0.159 0.939,0.318 1.256,0.476 v 0 -0.529 c 0,-1.04 -0.272,-1.826 -0.82,-2.354 v 0 c -0.547,-0.529 -1.464,-0.794 -2.751,-0.794 v 0 c -0.811,0 -1.566,0.07 -2.262,0.212 v 0 c -0.698,0.141 -1.319,0.325 -1.865,0.555 v 0 l -0.583,-2.725 c 0.653,-0.229 1.38,-0.414 2.183,-0.556 v 0 c 0.803,-0.141 1.627,-0.211 2.474,-0.211 v 0 c 2.311,0 4.026,0.511 5.146,1.534 v 0 c 1.12,1.024 1.68,2.637 1.68,4.842 v 0 11.986 c -0.653,0.176 -1.447,0.343 -2.381,0.503 v 0 c -0.935,0.158 -1.923,0.237 -2.963,0.237 v 0 c -1.076,0 -2.038,-0.167 -2.884,-0.503 m 0.199,-9.326 c -0.592,0.626 -0.887,1.618 -0.887,2.977 v 0 c 0,1.252 0.308,2.262 0.925,3.029 v 0 c 0.618,0.768 1.51,1.151 2.673,1.151 v 0 c 0.511,0 0.935,-0.022 1.27,-0.066 v 0 c 0.335,-0.044 0.617,-0.092 0.846,-0.145 v 0 -7.171 c -0.281,-0.194 -0.648,-0.361 -1.097,-0.503 v 0 c -0.451,-0.141 -0.93,-0.211 -1.442,-0.211 v 0 c -0.935,0 -1.698,0.312 -2.288,0.939"
         id="path776"
         inkscape:connector-curvature="0" /></clipPath><linearGradient
       x1="0"
       y1="0"
       x2="1"
       y2="0"
       gradientUnits="userSpaceOnUse"
       gradientTransform="matrix(0,-19.103027,-19.103027,0,509.45264,429.1705)"
       spreadMethod="pad"
       id="linearGradient790"><stop
         style="stop-opacity:1;stop-color:#60d639"
         offset="0"
         id="stop784" /><stop
         style="stop-opacity:1;stop-color:#60d639"
         offset="0.02824881"
         id="stop786" /><stop
         style="stop-opacity:1;stop-color:#2dc63a"
         offset="1"
         id="stop788" /></linearGradient><clipPath
       clipPathUnits="userSpaceOnUse"
       id="clipPath800"><path
         d="M 0,577.874 H 813.353 V 0 H 0 Z"
         id="path798"
         inkscape:connector-curvature="0" /></clipPath><clipPath
       clipPathUnits="userSpaceOnUse"
       id="clipPath842"><path
         d="M 0,577.874 H 813.353 V 0 H 0 Z"
         id="path840"
         inkscape:connector-curvature="0" /></clipPath><clipPath
       clipPathUnits="userSpaceOnUse"
       id="clipPath902"><path
         d="M 0,577.874 H 813.353 V 0 H 0 Z"
         id="path900"
         inkscape:connector-curvature="0" /></clipPath><clipPath
       clipPathUnits="userSpaceOnUse"
       id="clipPath930"><path
         d="M 0,577.874 H 813.353 V 0 H 0 Z"
         id="path928"
         inkscape:connector-curvature="0" /></clipPath><linearGradient
       inkscape:collect="always"
       xlink:href="#linearGradient190"
       id="linearGradient2217"
       gradientUnits="userSpaceOnUse"
       gradientTransform="matrix(0,-14.472871,-14.472871,0,156.0513,429.22354)"
       x1="0"
       y1="0"
       x2="1"
       y2="0"
       spreadMethod="pad" /><linearGradient
       inkscape:collect="always"
       xlink:href="#linearGradient256"
       id="linearGradient2219"
       gradientUnits="userSpaceOnUse"
       gradientTransform="matrix(0,-19.87023,-19.87023,0,200.71291,434.91202)"
       x1="0"
       y1="0"
       x2="1"
       y2="0"
       spreadMethod="pad" /><linearGradient
       inkscape:collect="always"
       xlink:href="#linearGradient2187"
       id="linearGradient2225"
       gradientUnits="userSpaceOnUse"
       x1="248.27629"
       y1="-414.7923"
       x2="248.27629"
       y2="-434.48737"
       gradientTransform="translate(-10.409321)" /><linearGradient
       inkscape:collect="always"
       xlink:href="#linearGradient256"
       id="linearGradient2234"
       gradientUnits="userSpaceOnUse"
       gradientTransform="matrix(0,-19.87023,-19.87023,0,200.71291,434.91202)"
       x1="0"
       y1="0"
       x2="1"
       y2="0"
       spreadMethod="pad" /><linearGradient
       inkscape:collect="always"
       xlink:href="#linearGradient190"
       id="linearGradient2248"
       gradientUnits="userSpaceOnUse"
       gradientTransform="matrix(0,-14.472871,-14.472871,0,156.0513,429.22354)"
       x1="0"
       y1="0"
       x2="1"
       y2="0"
       spreadMethod="pad" /><linearGradient
       inkscape:collect="always"
       xlink:href="#linearGradient2187"
       id="linearGradient1489"
       gradientUnits="userSpaceOnUse"
       gradientTransform="translate(-19.75389,157.92736)"
       x1="248.27629"
       y1="-414.7923"
       x2="248.27629"
       y2="-434.48737" /><linearGradient
       inkscape:collect="always"
       xlink:href="#linearGradient300"
       id="linearGradient1491"
       gradientUnits="userSpaceOnUse"
       gradientTransform="matrix(0,-19.103027,-19.103027,0,227.2238,429.1705)"
       x1="0"
       y1="0"
       x2="1"
       y2="0"
       spreadMethod="pad" /><linearGradient
       inkscape:collect="always"
       xlink:href="#linearGradient278"
       id="linearGradient1493"
       gradientUnits="userSpaceOnUse"
       gradientTransform="matrix(0,-14.128735,-14.128735,0,212.19557,429.1705)"
       x1="0"
       y1="0"
       x2="1"
       y2="0"
       spreadMethod="pad" /><linearGradient
       inkscape:collect="always"
       xlink:href="#linearGradient256"
       id="linearGradient1495"
       gradientUnits="userSpaceOnUse"
       gradientTransform="matrix(0,-19.87023,-19.87023,0,200.71291,434.91202)"
       x1="0"
       y1="0"
       x2="1"
       y2="0"
       spreadMethod="pad" /><linearGradient
       inkscape:collect="always"
       xlink:href="#linearGradient234"
       id="linearGradient1497"
       gradientUnits="userSpaceOnUse"
       gradientTransform="matrix(0,-14.128735,-14.128735,0,185.7112,429.1705)"
       x1="0"
       y1="0"
       x2="1"
       y2="0"
       spreadMethod="pad" /><linearGradient
       inkscape:collect="always"
       xlink:href="#linearGradient212"
       id="linearGradient1499"
       gradientUnits="userSpaceOnUse"
       gradientTransform="matrix(0,-14.128735,-14.128735,0,169.78317,429.1705)"
       x1="0"
       y1="0"
       x2="1"
       y2="0"
       spreadMethod="pad" /><linearGradient
       inkscape:collect="always"
       xlink:href="#linearGradient190"
       id="linearGradient1501"
       gradientUnits="userSpaceOnUse"
       gradientTransform="matrix(0,-14.472871,-14.472871,0,156.0513,429.22354)"
       x1="0"
       y1="0"
       x2="1"
       y2="0"
       spreadMethod="pad" /><linearGradient
       inkscape:collect="always"
       xlink:href="#linearGradient168"
       id="linearGradient1503"
       gradientUnits="userSpaceOnUse"
       gradientTransform="matrix(0,-20.531771,-20.531771,0,145.28288,435.57355)"
       x1="0"
       y1="0"
       x2="1"
       y2="0"
       spreadMethod="pad" /><linearGradient
       inkscape:collect="always"
       xlink:href="#linearGradient146"
       id="linearGradient1505"
       gradientUnits="userSpaceOnUse"
       gradientTransform="matrix(0,-14.128735,-14.128735,0,131.15436,429.1705)"
       x1="0"
       y1="0"
       x2="1"
       y2="0"
       spreadMethod="pad" /><linearGradient
       inkscape:collect="always"
       xlink:href="#linearGradient124"
       id="linearGradient1507"
       gradientUnits="userSpaceOnUse"
       gradientTransform="matrix(0,-14.525702,-14.525702,0,115.74253,429.22354)"
       x1="0"
       y1="0"
       x2="1"
       y2="0"
       spreadMethod="pad" /><linearGradient
       inkscape:collect="always"
       xlink:href="#linearGradient102"
       id="linearGradient1509"
       gradientUnits="userSpaceOnUse"
       gradientTransform="matrix(0,-19.023466,-19.023466,0,100.72746,429.1705)"
       x1="0"
       y1="0"
       x2="1"
       y2="0"
       spreadMethod="pad" /><linearGradient
       inkscape:collect="always"
       xlink:href="#linearGradient80"
       id="linearGradient1511"
       gradientUnits="userSpaceOnUse"
       gradientTransform="matrix(0,-14.552222,-14.552222,0,84.548332,429.22354)"
       x1="0"
       y1="0"
       x2="1"
       y2="0"
       spreadMethod="pad" /><linearGradient
       inkscape:collect="always"
       xlink:href="#linearGradient256"
       id="linearGradient1513"
       gradientUnits="userSpaceOnUse"
       gradientTransform="matrix(0,-19.87023,-19.87023,0,200.71291,434.91202)"
       x1="0"
       y1="0"
       x2="1"
       y2="0"
       spreadMethod="pad" /><linearGradient
       inkscape:collect="always"
       xlink:href="#linearGradient190"
       id="linearGradient1515"
       gradientUnits="userSpaceOnUse"
       gradientTransform="matrix(0,-14.472871,-14.472871,0,156.0513,429.22354)"
       x1="0"
       y1="0"
       x2="1"
       y2="0"
       spreadMethod="pad" /><linearGradient
       inkscape:collect="always"
       xlink:href="#linearGradient34343"
       id="linearGradient34345"
       x1="79.810509"
       y1="-288.55038"
       x2="398.83725"
       y2="-394.89212"
       gradientUnits="userSpaceOnUse" /></defs><sodipodi:namedview
     pagecolor="#ffffff"
     bordercolor="#666666"
     borderopacity="1"
     objecttolerance="10"
     gridtolerance="10"
     guidetolerance="10"
     inkscape:pageopacity="0"
     inkscape:pageshadow="2"
     inkscape:window-width="1848"
     inkscape:window-height="1016"
     id="namedview4"
     showgrid="false"
     fit-margin-top="5"
     fit-margin-left="5"
     fit-margin-right="5"
     fit-margin-bottom="5"
     inkscape:zoom="1.6081092"
     inkscape:cx="243.76455"
     inkscape:cy="241.58808"
     inkscape:window-x="72"
     inkscape:window-y="27"
     inkscape:window-maximized="1"
     inkscape:current-layer="g10"
     inkscape:pagecheckerboard="0" /><g
     id="g10"
     inkscape:groupmode="layer"
     inkscape:label="2020_09_29_openfarming_design_Manual"
     transform="matrix(1.3333333,0,0,-1.3333333,-84.998236,705.31299)"><g
   id="g2203"
   clip-path="url(#clipPath178)"
   transform="translate(81.687298)"><g
     id="g2201"><g
       id="g2199"><path
         d="m 153.552,429.012 c -0.778,-0.141 -1.368,-0.283 -1.773,-0.423 v 0 l 0.397,-2.594 c 0.387,0.142 0.89,0.265 1.507,0.371 v 0 c 0.617,0.106 1.297,0.158 2.038,0.158 v 0 c 0.546,0 1,-0.07 1.362,-0.211 v 0 c 0.361,-0.141 0.653,-0.339 0.873,-0.596 v 0 c 0.221,-0.256 0.375,-0.551 0.464,-0.886 v 0 c 0.087,-0.334 0.132,-0.688 0.132,-1.058 v 0 -0.529 c -0.442,0.106 -0.856,0.181 -1.244,0.225 v 0 c -0.389,0.043 -0.758,0.066 -1.111,0.066 v 0 c -0.759,0 -1.487,-0.075 -2.183,-0.225 v 0 c -0.697,-0.15 -1.31,-0.397 -1.838,-0.741 v 0 c -0.53,-0.344 -0.949,-0.789 -1.258,-1.336 v 0 c -0.308,-0.547 -0.462,-1.217 -0.462,-2.011 v 0 c 0,-0.829 0.136,-1.526 0.41,-2.09 v 0 c 0.273,-0.565 0.652,-1.023 1.138,-1.376 v 0 c 0.484,-0.353 1.071,-0.609 1.758,-0.767 v 0 c 0.689,-0.159 1.447,-0.238 2.276,-0.238 v 0 c 1.252,0 2.377,0.075 3.374,0.225 v 0 c 0.996,0.149 1.741,0.278 2.235,0.383 v 0 8.388 c 0,0.811 -0.093,1.556 -0.277,2.236 v 0 c -0.185,0.678 -0.494,1.256 -0.927,1.733 v 0 c -0.432,0.476 -1.01,0.846 -1.733,1.111 v 0 c -0.723,0.264 -1.614,0.396 -2.672,0.396 v 0 c -0.882,0 -1.711,-0.071 -2.486,-0.211 m 0.82,-11.285 c -0.477,0.291 -0.715,0.815 -0.715,1.575 v 0 c 0,0.387 0.088,0.709 0.265,0.966 v 0 c 0.176,0.254 0.409,0.453 0.701,0.594 v 0 c 0.29,0.142 0.617,0.239 0.979,0.291 v 0 c 0.361,0.053 0.718,0.08 1.071,0.08 v 0 c 0.406,0 0.777,-0.027 1.111,-0.08 v 0 c 0.335,-0.052 0.591,-0.105 0.768,-0.158 v 0 -3.545 c -0.512,-0.106 -1.262,-0.16 -2.249,-0.16 v 0 c -0.812,0 -1.455,0.146 -1.931,0.437"
         style="fill:url(#linearGradient2217);stroke:none"
         id="path2197"
         inkscape:connector-curvature="0" /></g></g></g><g
   id="g2213"
   clip-path="url(#clipPath244)"
   transform="translate(47.715679)"><g
     id="g2211"><g
       id="g2209"><path
         d="m 199.324,434.382 c -0.388,-0.352 -0.582,-0.838 -0.582,-1.454 v 0 c 0,-0.6 0.194,-1.076 0.582,-1.429 v 0 c 0.388,-0.353 0.855,-0.53 1.402,-0.53 v 0 c 0.529,0 0.988,0.177 1.376,0.53 v 0 c 0.388,0.353 0.582,0.829 0.582,1.429 v 0 c 0,0.616 -0.194,1.102 -0.582,1.454 v 0 c -0.388,0.354 -0.847,0.529 -1.376,0.529 v 0 c -0.547,0 -1.014,-0.175 -1.402,-0.529 m -0.185,-19.34 h 3.202 v 13.837 h -3.202 z"
         style="fill:url(#linearGradient2219);stroke:none"
         id="path2207"
         inkscape:connector-curvature="0" /></g></g></g><g
   id="g34"><g
     id="g36"
     clip-path="url(#clipPath40)"><g
       id="g42"
       transform="translate(201.5312,488.7805)"><path
         d="m 0,0 c -0.086,-1.179 -1.483,-1.752 -2.371,-0.971 -1.245,1.092 -2.966,2.44 -4.878,3.491 0.003,0.018 0,0.031 -0.003,0.045 v 0.003 c -0.367,6.558 -2.379,12.625 -5.639,17.835 l -0.076,0.124 c -0.007,0.011 -0.013,0.017 -0.02,0.025 2.06,0.062 4.4,-0.623 6.785,-2.365 C 0.062,13.613 0.332,4.629 0,0"
         style="fill:#b3de39;fill-opacity:1;fill-rule:nonzero;stroke:none"
         id="path44"
         inkscape:connector-curvature="0" /></g><g
       id="g46"
       transform="translate(155.4253,489.1873)"><path
         d="m 0,0 c -2.621,0 -4.745,-2.125 -4.745,-4.745 0,-2.62 2.124,-4.745 4.745,-4.745 2.621,0 4.745,2.125 4.745,4.745 C 4.745,-2.125 2.621,0 0,0"
         style="fill:#b3de39;fill-opacity:1;fill-rule:nonzero;stroke:none"
         id="path48"
         inkscape:connector-curvature="0" /></g><g
       id="g50"
       transform="translate(156.0815,460.7273)"><path
         d="m 0,0 c 0.025,0.485 -0.346,0.898 -0.831,0.924 l -0.015,0.001 c -2.032,0.108 -4.042,0.447 -5.956,1.059 -1.912,0.613 -3.739,1.458 -5.406,2.54 -1.678,1.061 -3.183,2.367 -4.515,3.805 -1.308,1.462 -2.45,3.062 -3.328,4.79 -1.799,3.438 -2.597,7.303 -2.425,11.082 0.178,3.785 1.36,7.444 3.362,10.535 0.048,0.075 0.096,0.157 0.139,0.236 0.8,1.513 0.222,3.387 -1.291,4.187 -1.512,0.799 -3.386,0.221 -4.186,-1.291 l -0.021,-0.038 c -2.226,-4.211 -3.279,-8.981 -3.082,-13.632 0.195,-4.652 1.599,-9.222 4.067,-13.07 1.212,-1.936 2.701,-3.676 4.349,-5.217 1.673,-1.516 3.511,-2.839 5.498,-3.866 1.975,-1.047 4.087,-1.805 6.243,-2.293 2.158,-0.485 4.37,-0.66 6.552,-0.583 C -0.398,-0.814 -0.024,-0.457 0,0"
         style="fill:#2dc63a;fill-opacity:1;fill-rule:nonzero;stroke:none"
         id="path52"
         inkscape:connector-curvature="0" /></g><g
       id="g54"
       transform="translate(188.6406,509.1834)"><path
         d="m 0,0 -0.076,0.125 c 0,0 -0.014,0.017 -0.021,0.024 -21.796,28.786 -68.561,16.258 -72.06,-19.66 -0.145,-1.486 -0.214,-3.014 -0.207,-4.58 0.132,-13.603 7.972,-26.753 19.943,-33.218 2.914,-1.625 6.057,-2.835 9.292,-3.633 1.587,-0.322 11.274,-2.461 11.035,0.069 0.021,0.667 -0.512,1.224 -1.176,1.231 -6.17,0.159 -12.275,1.897 -17.522,5.14 -1.159,0.726 -2.251,1.494 -3.278,2.295 -27.116,21.084 -9.897,66.028 26.083,60.269 0.093,-0.018 0.186,-0.035 0.279,-0.052 0.271,-0.049 0.54,-0.104 0.81,-0.163 0,0 0.003,-0.003 0.006,0 0.533,-0.114 1.065,-0.245 1.594,-0.39 0.266,-0.069 0.529,-0.145 0.792,-0.225 0.525,-0.156 1.047,-0.329 1.566,-0.515 0.259,-0.09 0.515,-0.187 0.771,-0.287 0.024,-0.011 0.048,-0.017 0.072,-0.028 0.218,-0.083 0.436,-0.172 0.65,-0.262 0.014,-0.007 0.028,-0.011 0.042,-0.018 0.113,-0.048 0.224,-0.093 0.339,-0.145 0.169,-0.073 0.338,-0.148 0.507,-0.225 0.17,-0.076 0.339,-0.155 0.505,-0.235 0.17,-0.079 0.336,-0.159 0.502,-0.242 1.161,-0.581 2.291,-1.231 3.373,-1.946 0.156,-0.103 0.308,-0.207 0.46,-0.311 l 0.457,-0.322 c 0.152,-0.107 0.3,-0.217 0.449,-0.328 0.152,-0.111 0.301,-0.224 0.446,-0.335 0.733,-0.564 1.445,-1.162 2.126,-1.791 -0.007,0 -0.01,-0.003 -0.014,-0.007 6.126,-5.635 9.61,-13.959 9.379,-22.266 0.003,-0.716 -1.117,-0.702 -1.117,0 -0.062,3.64 -0.857,7.242 -2.288,10.564 -0.159,0.374 -0.329,0.744 -0.505,1.11 0,0 -0.004,0 -0.004,0.003 -1.488,3.096 -3.543,5.913 -6.072,8.248 -0.869,0.802 -2.213,0.834 -3.081,0.032 -5.187,-4.785 -6.605,-14.317 0.833,-21.316 4.169,-3.923 6.35,-10.778 7.387,-15.258 3.785,-8.079 13.275,14.567 13.358,20.769 0,0.014 0.003,0.027 0.003,0.041 v 0.004 C 5.271,-11.276 3.26,-5.209 0,0"
         style="fill:#2dc63a;fill-opacity:1;fill-rule:nonzero;stroke:none"
         id="path56"
         inkscape:connector-curvature="0" /></g><g
       id="g58"
       transform="translate(155.9409,471.9519)"><path
         d="M 0,0 C 0.042,0.382 -0.234,0.726 -0.616,0.768 L -0.675,0.774 C -1.74,0.89 -2.795,1.038 -3.784,1.411 -4.29,1.551 -4.755,1.804 -5.232,2.004 -5.467,2.117 -5.687,2.259 -5.914,2.383 -6.14,2.51 -6.365,2.633 -6.571,2.793 l -0.63,0.445 c -0.202,0.159 -0.391,0.335 -0.586,0.499 l -0.29,0.249 C -8.17,4.074 -8.254,4.171 -8.343,4.262 l -0.527,0.55 -0.469,0.597 -0.234,0.297 -0.202,0.318 c -0.135,0.213 -0.274,0.42 -0.404,0.633 l -0.341,0.667 c -0.054,0.111 -0.118,0.218 -0.166,0.332 l -0.135,0.347 c -0.088,0.231 -0.188,0.456 -0.267,0.689 -0.12,0.479 -0.299,0.936 -0.359,1.424 -0.04,0.24 -0.093,0.477 -0.125,0.717 l -0.054,0.725 c -0.009,0.121 -0.023,0.24 -0.027,0.36 l 0.01,0.363 0.016,0.72 c 0.137,1.917 0.783,3.738 1.822,5.255 0.056,0.084 0.117,0.182 0.163,0.275 0.608,1.197 0.13,2.661 -1.068,3.268 -1.197,0.608 -2.661,0.13 -3.269,-1.068 l -0.029,-0.058 c -1.215,-2.394 -1.76,-5.084 -1.604,-7.68 l 0.101,-0.97 0.053,-0.482 c 0.026,-0.16 0.063,-0.318 0.095,-0.477 l 0.2,-0.947 c 0.084,-0.312 0.189,-0.617 0.285,-0.925 0.17,-0.619 0.465,-1.196 0.709,-1.783 0.14,-0.286 0.303,-0.561 0.455,-0.841 l 0.231,-0.415 c 0.08,-0.137 0.176,-0.264 0.264,-0.396 l 0.538,-0.779 c 0.196,-0.248 0.402,-0.486 0.603,-0.727 l 0.304,-0.358 0.334,-0.332 0.67,-0.653 0.726,-0.588 C -9.923,2.224 -9.806,2.123 -9.68,2.032 L -9.292,1.774 C -9.033,1.606 -8.78,1.429 -8.516,1.271 L -7.7,0.837 c 0.265,-0.152 0.551,-0.267 0.835,-0.382 0.285,-0.113 0.562,-0.241 0.851,-0.338 0.588,-0.168 1.158,-0.379 1.76,-0.471 1.18,-0.275 2.394,-0.294 3.579,-0.267 C -0.332,-0.613 -0.038,-0.351 0,0"
         style="fill:#2dc63a;fill-opacity:1;fill-rule:nonzero;stroke:none"
         id="path60"
         inkscape:connector-curvature="0" /></g></g></g><g
   clip-path="url(#clipPath68)"
   id="g64"
   transform="translate(-10.409321)"><g
     id="g70"><g
       id="g72"><path
         inkscape:connector-curvature="0"
         id="path82"
         style="fill:url(#linearGradient80);stroke:none"
         d="m 81.876,428.708 c -0.811,-0.345 -1.512,-0.834 -2.104,-1.469 v 0 c -0.591,-0.635 -1.049,-1.398 -1.376,-2.289 v 0 c -0.326,-0.891 -0.488,-1.882 -0.488,-2.976 v 0 c 0,-1.094 0.162,-2.091 0.488,-2.99 v 0 c 0.327,-0.9 0.782,-1.667 1.363,-2.302 v 0 c 0.582,-0.635 1.279,-1.129 2.091,-1.481 v 0 c 0.811,-0.353 1.711,-0.53 2.699,-0.53 v 0 c 0.987,0 1.891,0.177 2.711,0.53 v 0 c 0.82,0.352 1.521,0.846 2.104,1.481 v 0 c 0.582,0.635 1.031,1.402 1.349,2.302 v 0 c 0.318,0.899 0.477,1.896 0.477,2.99 v 0 c 0,1.094 -0.164,2.085 -0.491,2.976 v 0 c -0.325,0.891 -0.78,1.654 -1.361,2.289 v 0 c -0.583,0.635 -1.284,1.124 -2.104,1.469 v 0 c -0.821,0.344 -1.716,0.515 -2.685,0.515 v 0 c -0.97,0 -1.862,-0.171 -2.673,-0.515 m 0.199,-10.041 c -0.592,0.81 -0.887,1.913 -0.887,3.307 v 0 c 0,1.376 0.295,2.465 0.887,3.268 v 0 c 0.59,0.802 1.415,1.203 2.474,1.203 v 0 c 1.057,0 1.882,-0.401 2.473,-1.203 v 0 c 0.591,-0.803 0.886,-1.892 0.886,-3.268 v 0 c 0,-1.394 -0.295,-2.497 -0.886,-3.307 v 0 c -0.591,-0.811 -1.416,-1.217 -2.473,-1.217 v 0 c -1.059,0 -1.884,0.406 -2.474,1.217" /></g></g></g><g
   clip-path="url(#clipPath90)"
   id="g86"
   transform="translate(-10.409321)"><g
     id="g92"><g
       id="g94"><path
         inkscape:connector-curvature="0"
         id="path104"
         style="fill:url(#linearGradient102);stroke:none"
         d="m 96.904,428.933 c -0.952,-0.16 -1.755,-0.327 -2.408,-0.503 v 0 -18.283 h 3.203 v 5.37 c 0.352,-0.193 0.802,-0.37 1.349,-0.528 v 0 c 0.546,-0.159 1.145,-0.238 1.799,-0.238 v 0 c 0.969,0 1.839,0.176 2.605,0.529 v 0 c 0.768,0.353 1.407,0.847 1.919,1.481 v 0 c 0.511,0.636 0.904,1.393 1.177,2.276 v 0 c 0.274,0.881 0.411,1.852 0.411,2.911 v 0 c 0,1.111 -0.163,2.111 -0.49,3.002 v 0 c -0.327,0.891 -0.794,1.649 -1.403,2.275 v 0 c -0.608,0.627 -1.345,1.107 -2.209,1.442 v 0 c -0.864,0.336 -1.843,0.503 -2.936,0.503 v 0 c -1.059,0 -2.064,-0.079 -3.017,-0.237 m 1.919,-11.179 c -0.468,0.167 -0.843,0.348 -1.124,0.543 v 0 7.911 c 0.316,0.087 0.638,0.145 0.964,0.171 v 0 c 0.327,0.027 0.639,0.04 0.94,0.04 v 0 c 1.428,0 2.465,-0.397 3.109,-1.191 v 0 c 0.643,-0.793 0.965,-1.905 0.965,-3.333 v 0 c 0,-1.341 -0.268,-2.409 -0.806,-3.202 v 0 c -0.538,-0.794 -1.39,-1.19 -2.553,-1.19 v 0 c -0.53,0 -1.028,0.083 -1.495,0.251" /></g></g></g><g
   clip-path="url(#clipPath112)"
   id="g108"
   transform="translate(-10.409321)"><g
     id="g114"><g
       id="g116"><path
         inkscape:connector-curvature="0"
         id="path126"
         style="fill:url(#linearGradient124);stroke:none"
         d="m 113.547,428.761 c -0.777,-0.309 -1.465,-0.768 -2.064,-1.376 v 0 c -0.6,-0.609 -1.081,-1.372 -1.443,-2.289 v 0 c -0.362,-0.918 -0.541,-1.984 -0.541,-3.201 v 0 c 0,-1.042 0.14,-1.998 0.423,-2.871 v 0 c 0.281,-0.873 0.714,-1.632 1.296,-2.275 v 0 c 0.583,-0.645 1.323,-1.148 2.223,-1.509 v 0 c 0.899,-0.362 1.957,-0.542 3.175,-0.542 v 0 c 0.476,0 0.943,0.026 1.402,0.079 v 0 c 0.459,0.053 0.886,0.119 1.283,0.199 v 0 c 0.397,0.079 0.75,0.167 1.059,0.264 v 0 c 0.308,0.096 0.551,0.189 0.728,0.277 v 0 l -0.424,2.62 c -0.371,-0.158 -0.878,-0.308 -1.522,-0.449 v 0 c -0.644,-0.142 -1.354,-0.212 -2.129,-0.212 v 0 c -1.323,0 -2.333,0.304 -3.03,0.913 v 0 c -0.697,0.609 -1.09,1.468 -1.177,2.58 v 0 h 9.128 c 0.017,0.176 0.03,0.374 0.039,0.595 v 0 c 0.009,0.22 0.014,0.419 0.014,0.595 v 0 c 0,2.346 -0.534,4.11 -1.601,5.292 v 0 c -1.068,1.181 -2.553,1.772 -4.458,1.772 v 0 c -0.812,0 -1.605,-0.154 -2.381,-0.462 m -0.424,-4.247 c 0.141,0.388 0.339,0.731 0.596,1.032 v 0 c 0.255,0.3 0.568,0.542 0.938,0.727 v 0 c 0.371,0.186 0.803,0.278 1.297,0.278 v 0 c 0.476,0 0.887,-0.084 1.231,-0.252 v 0 c 0.343,-0.167 0.634,-0.396 0.873,-0.687 v 0 c 0.238,-0.292 0.419,-0.636 0.542,-1.032 v 0 c 0.123,-0.396 0.186,-0.816 0.186,-1.257 v 0 h -5.954 c 0.053,0.406 0.15,0.803 0.291,1.191" /></g></g></g><g
   clip-path="url(#clipPath134)"
   id="g130"
   transform="translate(-10.409321)"><g
     id="g136"><g
       id="g138"><path
         inkscape:connector-curvature="0"
         id="path148"
         style="fill:url(#linearGradient146);stroke:none"
         d="m 127.781,428.933 c -0.988,-0.16 -1.79,-0.327 -2.408,-0.503 v 0 -13.388 h 3.202 v 11.166 c 0.211,0.035 0.538,0.079 0.979,0.132 v 0 c 0.44,0.052 0.864,0.079 1.27,0.079 v 0 c 0.546,0 1.01,-0.075 1.389,-0.225 v 0 c 0.379,-0.15 0.678,-0.388 0.9,-0.715 v 0 c 0.219,-0.326 0.379,-0.749 0.476,-1.269 v 0 c 0.096,-0.521 0.145,-1.151 0.145,-1.892 v 0 -7.276 h 3.202 v 7.779 c 0,0.934 -0.093,1.795 -0.278,2.579 v 0 c -0.186,0.785 -0.502,1.456 -0.953,2.011 v 0 c -0.449,0.555 -1.053,0.988 -1.812,1.297 v 0 c -0.759,0.308 -1.703,0.462 -2.831,0.462 v 0 c -1.2,0 -2.294,-0.079 -3.281,-0.237" /></g></g></g><g
   clip-path="url(#clipPath156)"
   id="g152"
   transform="translate(-10.409321)"><g
     id="g158"><g
       id="g160"><path
         inkscape:connector-curvature="0"
         id="path170"
         style="fill:url(#linearGradient168);stroke:none"
         d="m 142.253,434.052 c -0.935,-1.014 -1.402,-2.412 -1.402,-4.193 v 0 -14.817 h 3.202 v 11.166 h 5.027 v 2.672 h -5.027 v 0.926 c 0,0.441 0.043,0.85 0.132,1.23 v 0 c 0.088,0.379 0.238,0.701 0.449,0.966 v 0 c 0.213,0.264 0.495,0.471 0.847,0.622 v 0 c 0.353,0.149 0.785,0.225 1.296,0.225 v 0 c 0.459,0 0.887,-0.045 1.284,-0.133 v 0 c 0.397,-0.089 0.745,-0.203 1.045,-0.343 v 0 l 0.609,2.645 c -0.283,0.106 -0.706,0.225 -1.27,0.357 v 0 c -0.565,0.132 -1.218,0.199 -1.958,0.199 v 0 c -1.888,0 -3.299,-0.508 -4.234,-1.522" /></g></g></g><g
   clip-path="url(#clipPath178)"
   id="g174"
   transform="translate(-10.409321)"><g
     id="g180"><g
       id="g182"><path
         inkscape:connector-curvature="0"
         id="path192"
         style="fill:url(#linearGradient2248);stroke:none"
         d="m 153.552,429.012 c -0.778,-0.141 -1.368,-0.283 -1.773,-0.423 v 0 l 0.397,-2.594 c 0.387,0.142 0.89,0.265 1.507,0.371 v 0 c 0.617,0.106 1.297,0.158 2.038,0.158 v 0 c 0.546,0 1,-0.07 1.362,-0.211 v 0 c 0.361,-0.141 0.653,-0.339 0.873,-0.596 v 0 c 0.221,-0.256 0.375,-0.551 0.464,-0.886 v 0 c 0.087,-0.334 0.132,-0.688 0.132,-1.058 v 0 -0.529 c -0.442,0.106 -0.856,0.181 -1.244,0.225 v 0 c -0.389,0.043 -0.758,0.066 -1.111,0.066 v 0 c -0.759,0 -1.487,-0.075 -2.183,-0.225 v 0 c -0.697,-0.15 -1.31,-0.397 -1.838,-0.741 v 0 c -0.53,-0.344 -0.949,-0.789 -1.258,-1.336 v 0 c -0.308,-0.547 -0.462,-1.217 -0.462,-2.011 v 0 c 0,-0.829 0.136,-1.526 0.41,-2.09 v 0 c 0.273,-0.565 0.652,-1.023 1.138,-1.376 v 0 c 0.484,-0.353 1.071,-0.609 1.758,-0.767 v 0 c 0.689,-0.159 1.447,-0.238 2.276,-0.238 v 0 c 1.252,0 2.377,0.075 3.374,0.225 v 0 c 0.996,0.149 1.741,0.278 2.235,0.383 v 0 8.388 c 0,0.811 -0.093,1.556 -0.277,2.236 v 0 c -0.185,0.678 -0.494,1.256 -0.927,1.733 v 0 c -0.432,0.476 -1.01,0.846 -1.733,1.111 v 0 c -0.723,0.264 -1.614,0.396 -2.672,0.396 v 0 c -0.882,0 -1.711,-0.071 -2.486,-0.211 m 0.82,-11.285 c -0.477,0.291 -0.715,0.815 -0.715,1.575 v 0 c 0,0.387 0.088,0.709 0.265,0.966 v 0 c 0.176,0.254 0.409,0.453 0.701,0.594 v 0 c 0.29,0.142 0.617,0.239 0.979,0.291 v 0 c 0.361,0.053 0.718,0.08 1.071,0.08 v 0 c 0.406,0 0.777,-0.027 1.111,-0.08 v 0 c 0.335,-0.052 0.591,-0.105 0.768,-0.158 v 0 -3.545 c -0.512,-0.106 -1.262,-0.16 -2.249,-0.16 v 0 c -0.812,0 -1.455,0.146 -1.931,0.437" /></g></g></g><g
   clip-path="url(#clipPath200)"
   id="g196"
   transform="translate(-10.409321)"><g
     id="g202"><g
       id="g204"><path
         inkscape:connector-curvature="0"
         id="path214"
         style="fill:url(#linearGradient212);stroke:none"
         d="m 167.878,428.866 c -0.926,-0.202 -1.698,-0.419 -2.315,-0.648 v 0 -13.176 h 3.201 v 11.086 c 0.16,0.053 0.437,0.115 0.834,0.185 v 0 c 0.397,0.07 0.771,0.106 1.125,0.106 v 0 c 0.617,0 1.159,-0.049 1.627,-0.146 v 0 c 0.467,-0.097 0.833,-0.19 1.098,-0.278 v 0 l 0.555,2.699 c -0.158,0.053 -0.371,0.11 -0.635,0.172 v 0 c -0.265,0.062 -0.538,0.114 -0.82,0.159 v 0 c -0.283,0.044 -0.564,0.08 -0.846,0.106 v 0 c -0.283,0.027 -0.529,0.039 -0.742,0.039 v 0 c -1.128,0 -2.156,-0.101 -3.082,-0.304" /></g></g></g><g
   clip-path="url(#clipPath222)"
   id="g218"
   transform="translate(-10.409321)"><g
     id="g224"><g
       id="g226"><path
         inkscape:connector-curvature="0"
         id="path236"
         style="fill:url(#linearGradient234);stroke:none"
         d="m 188.595,429.038 c -0.414,-0.088 -0.807,-0.199 -1.177,-0.33 v 0 c -0.371,-0.132 -0.706,-0.278 -1.006,-0.437 v 0 c -0.3,-0.159 -0.547,-0.308 -0.74,-0.45 v 0 c -0.406,0.406 -0.913,0.732 -1.521,0.98 v 0 c -0.609,0.246 -1.39,0.369 -2.342,0.369 v 0 c -1.112,0 -2.166,-0.079 -3.163,-0.237 v 0 c -0.996,-0.16 -1.802,-0.327 -2.421,-0.503 v 0 -13.388 h 3.203 v 11.166 c 0.211,0.035 0.529,0.079 0.952,0.132 v 0 c 0.423,0.052 0.811,0.079 1.164,0.079 v 0 c 0.988,0 1.663,-0.322 2.024,-0.966 v 0 c 0.361,-0.644 0.542,-1.689 0.542,-3.135 v 0 -7.276 h 3.202 v 7.647 c 0,0.564 -0.027,1.092 -0.08,1.586 v 0 c -0.053,0.494 -0.15,0.962 -0.29,1.403 v 0 c 0.228,0.159 0.573,0.322 1.031,0.49 v 0 c 0.459,0.167 0.943,0.251 1.455,0.251 v 0 c 1.006,0 1.685,-0.322 2.038,-0.966 v 0 c 0.353,-0.644 0.529,-1.689 0.529,-3.135 v 0 -7.276 h 3.202 v 7.779 c 0,0.934 -0.076,1.795 -0.226,2.579 v 0 c -0.149,0.785 -0.423,1.456 -0.819,2.011 v 0 c -0.397,0.555 -0.944,0.988 -1.641,1.297 v 0 c -0.697,0.308 -1.583,0.462 -2.659,0.462 v 0 c -0.424,0 -0.843,-0.044 -1.257,-0.132" /></g></g></g><g
   clip-path="url(#clipPath244)"
   id="g240"
   transform="translate(-10.409321)"><g
     id="g246"><g
       id="g248"><path
         inkscape:connector-curvature="0"
         id="path258"
         style="fill:url(#linearGradient2234);stroke:none"
         d="m 199.324,434.382 c -0.388,-0.352 -0.582,-0.838 -0.582,-1.454 v 0 c 0,-0.6 0.194,-1.076 0.582,-1.429 v 0 c 0.388,-0.353 0.855,-0.53 1.402,-0.53 v 0 c 0.529,0 0.988,0.177 1.376,0.53 v 0 c 0.388,0.353 0.582,0.829 0.582,1.429 v 0 c 0,0.616 -0.194,1.102 -0.582,1.454 v 0 c -0.388,0.354 -0.847,0.529 -1.376,0.529 v 0 c -0.547,0 -1.014,-0.175 -1.402,-0.529 m -0.185,-19.34 h 3.202 v 13.837 h -3.202 z" /></g></g></g><g
   clip-path="url(#clipPath266)"
   id="g262"
   transform="translate(-10.409321)"><g
     id="g268"><g
       id="g270"><path
         inkscape:connector-curvature="0"
         id="path280"
         style="fill:url(#linearGradient278);stroke:none"
         d="m 208.822,428.933 c -0.988,-0.16 -1.791,-0.327 -2.408,-0.503 v 0 -13.388 h 3.202 v 11.166 c 0.212,0.035 0.538,0.079 0.98,0.132 v 0 c 0.44,0.052 0.863,0.079 1.269,0.079 v 0 c 0.547,0 1.009,-0.075 1.389,-0.225 v 0 c 0.379,-0.15 0.679,-0.388 0.9,-0.715 v 0 c 0.22,-0.326 0.379,-0.749 0.476,-1.269 v 0 c 0.097,-0.521 0.145,-1.151 0.145,-1.892 v 0 -7.276 h 3.201 v 7.779 c 0,0.934 -0.091,1.795 -0.278,2.579 v 0 c -0.184,0.785 -0.502,1.456 -0.951,2.011 v 0 c -0.45,0.555 -1.055,0.988 -1.813,1.297 v 0 c -0.758,0.308 -1.702,0.462 -2.831,0.462 v 0 c -1.2,0 -2.293,-0.079 -3.281,-0.237" /></g></g></g><g
   id="g290"
   transform="translate(-10.409321)"><g
     id="g292"><path
       d="m 225.094,428.667 c -0.847,-0.335 -1.565,-0.802 -2.157,-1.402 v 0 c -0.591,-0.599 -1.04,-1.322 -1.349,-2.169 v 0 c -0.309,-0.847 -0.463,-1.773 -0.463,-2.778 v 0 c 0,-1.077 0.145,-2.024 0.436,-2.844 v 0 c 0.292,-0.82 0.698,-1.504 1.218,-2.051 v 0 c 0.52,-0.547 1.146,-0.962 1.878,-1.243 v 0 c 0.732,-0.283 1.539,-0.424 2.421,-0.424 v 0 c 0.671,0 1.265,0.08 1.787,0.238 v 0 c 0.519,0.159 0.938,0.318 1.256,0.476 v 0 -0.529 c 0,-1.04 -0.274,-1.826 -0.82,-2.354 v 0 c -0.547,-0.529 -1.464,-0.794 -2.752,-0.794 v 0 c -0.811,0 -1.565,0.07 -2.262,0.212 v 0 c -0.697,0.141 -1.318,0.325 -1.866,0.555 v 0 l -0.582,-2.725 c 0.653,-0.229 1.38,-0.414 2.184,-0.556 v 0 c 0.801,-0.141 1.627,-0.211 2.473,-0.211 v 0 c 2.311,0 4.026,0.511 5.147,1.534 v 0 c 1.119,1.024 1.679,2.637 1.679,4.842 v 0 11.986 c -0.652,0.176 -1.446,0.343 -2.381,0.503 v 0 c -0.934,0.158 -1.923,0.237 -2.964,0.237 v 0 c -1.075,0 -2.037,-0.167 -2.883,-0.503 m 0.198,-9.326 c -0.591,0.626 -0.886,1.618 -0.886,2.977 v 0 c 0,1.252 0.309,2.262 0.926,3.029 v 0 c 0.617,0.768 1.508,1.151 2.672,1.151 v 0 c 0.511,0 0.935,-0.022 1.27,-0.066 v 0 c 0.336,-0.044 0.617,-0.092 0.847,-0.145 v 0 -7.171 c -0.283,-0.194 -0.648,-0.361 -1.098,-0.503 v 0 c -0.45,-0.141 -0.931,-0.211 -1.442,-0.211 v 0 c -0.935,0 -1.698,0.312 -2.289,0.939"
       style="fill:url(#linearGradient300);stroke:none"
       id="path302"
       inkscape:connector-curvature="0" /></g></g><text
   xml:space="preserve"
   style="font-style:normal;font-variant:normal;font-weight:normal;font-stretch:normal;font-size:12px;line-height:1.25;font-family:Ubuntu;-inkscape-font-specification:Ubuntu;letter-spacing:0px;word-spacing:0px;fill:url(#linearGradient2225);fill-opacity:1;stroke:none;stroke-width:0.75"
   x="224.69299"
   y="-415.04199"
   id="text2223"
   transform="scale(1,-1)"><tspan
     sodipodi:role="line"
     id="tspan2221"
     x="224.69299"
     y="-415.04199"
     style="font-weight:normal;font-size:26.55px;fill:url(#linearGradient2225);fill-opacity:1;stroke-width:0.75">.</tspan></text>
<g
   id="g1365"
   clip-path="url(#clipPath178)"
   transform="translate(72.342729,-157.92736)"><g
     id="g1363"><g
       id="g1361"><path
         d="m 153.552,429.012 c -0.778,-0.141 -1.368,-0.283 -1.773,-0.423 v 0 l 0.397,-2.594 c 0.387,0.142 0.89,0.265 1.507,0.371 v 0 c 0.617,0.106 1.297,0.158 2.038,0.158 v 0 c 0.546,0 1,-0.07 1.362,-0.211 v 0 c 0.361,-0.141 0.653,-0.339 0.873,-0.596 v 0 c 0.221,-0.256 0.375,-0.551 0.464,-0.886 v 0 c 0.087,-0.334 0.132,-0.688 0.132,-1.058 v 0 -0.529 c -0.442,0.106 -0.856,0.181 -1.244,0.225 v 0 c -0.389,0.043 -0.758,0.066 -1.111,0.066 v 0 c -0.759,0 -1.487,-0.075 -2.183,-0.225 v 0 c -0.697,-0.15 -1.31,-0.397 -1.838,-0.741 v 0 c -0.53,-0.344 -0.949,-0.789 -1.258,-1.336 v 0 c -0.308,-0.547 -0.462,-1.217 -0.462,-2.011 v 0 c 0,-0.829 0.136,-1.526 0.41,-2.09 v 0 c 0.273,-0.565 0.652,-1.023 1.138,-1.376 v 0 c 0.484,-0.353 1.071,-0.609 1.758,-0.767 v 0 c 0.689,-0.159 1.447,-0.238 2.276,-0.238 v 0 c 1.252,0 2.377,0.075 3.374,0.225 v 0 c 0.996,0.149 1.741,0.278 2.235,0.383 v 0 8.388 c 0,0.811 -0.093,1.556 -0.277,2.236 v 0 c -0.185,0.678 -0.494,1.256 -0.927,1.733 v 0 c -0.432,0.476 -1.01,0.846 -1.733,1.111 v 0 c -0.723,0.264 -1.614,0.396 -2.672,0.396 v 0 c -0.882,0 -1.711,-0.071 -2.486,-0.211 m 0.82,-11.285 c -0.477,0.291 -0.715,0.815 -0.715,1.575 v 0 c 0,0.387 0.088,0.709 0.265,0.966 v 0 c 0.176,0.254 0.409,0.453 0.701,0.594 v 0 c 0.29,0.142 0.617,0.239 0.979,0.291 v 0 c 0.361,0.053 0.718,0.08 1.071,0.08 v 0 c 0.406,0 0.777,-0.027 1.111,-0.08 v 0 c 0.335,-0.052 0.591,-0.105 0.768,-0.158 v 0 -3.545 c -0.512,-0.106 -1.262,-0.16 -2.249,-0.16 v 0 c -0.812,0 -1.455,0.146 -1.931,0.437"
         style="fill:url(#linearGradient1515);stroke:none"
         id="path1359"
         inkscape:connector-curvature="0" /></g></g></g><rect
   style="fill:url(#linearGradient34345);fill-opacity:1;stroke:none;stroke-width:0.749999;stroke-linecap:square;stroke-linejoin:round;stroke-miterlimit:4;stroke-dasharray:none"
   id="rect34169"
   width="319.02673"
   height="106.34173"
   x="79.810509"
   y="-394.89212"
   transform="scale(1,-1)" /><g
   id="g1373"
   clip-path="url(#clipPath244)"
   transform="translate(38.37111,-157.92736)"><g
     id="g1371"><g
       id="g1369"><path
         d="m 199.324,434.382 c -0.388,-0.352 -0.582,-0.838 -0.582,-1.454 v 0 c 0,-0.6 0.194,-1.076 0.582,-1.429 v 0 c 0.388,-0.353 0.855,-0.53 1.402,-0.53 v 0 c 0.529,0 0.988,0.177 1.376,0.53 v 0 c 0.388,0.353 0.582,0.829 0.582,1.429 v 0 c 0,0.616 -0.194,1.102 -0.582,1.454 v 0 c -0.388,0.354 -0.847,0.529 -1.376,0.529 v 0 c -0.547,0 -1.014,-0.175 -1.402,-0.529 m -0.185,-19.34 h 3.202 v 13.837 h -3.202 z"
         style="fill:url(#linearGradient1513);stroke:none"
         id="path1367"
         inkscape:connector-curvature="0" /></g></g></g><g
   id="g1397"
   transform="translate(-10.05692,-141.97437)"
   style="fill:#ffffff"
   inkscape:export-filename="/home/moritz/Documents/Togayo/Software/Flasher/images/logo_white_960.png"
   inkscape:export-xdpi="276.41"
   inkscape:export-ydpi="276.41"><g
     id="g1395"
     clip-path="url(#clipPath40)"
     style="fill:#ffffff"><g
       id="g1377"
       transform="translate(201.5312,488.7805)"
       style="fill:#ffffff"><path
         d="m 0,0 c -0.086,-1.179 -1.483,-1.752 -2.371,-0.971 -1.245,1.092 -2.966,2.44 -4.878,3.491 0.003,0.018 -0.1682897,0.1003428 -0.1712897,0.1143428 l -0.09236,0.033985 c -0.367,6.558 -2.1788137,12.4434692 -5.4388143,17.6534692 l -0.03867,0.134913 c -0.007,0.011 0.01013,0.08729 0.0031,0.09529 2.06,0.062 4.4000002,-0.623 6.7850002,-2.365 C 0.062,13.613 0.332,4.629 0,0"
         style="fill:#ffffff;fill-opacity:1;fill-rule:nonzero;stroke:none"
         id="path1375"
         inkscape:connector-curvature="0"
         sodipodi:nodetypes="cccccccccc" /></g><g
       id="g1381"
       transform="translate(155.4253,489.1873)"
       style="fill:#ffffff"><path
         d="m 0,0 c -2.621,0 -4.745,-2.125 -4.745,-4.745 0,-2.62 2.124,-4.745 4.745,-4.745 2.621,0 4.745,2.125 4.745,4.745 C 4.745,-2.125 2.621,0 0,0"
         style="fill:#ffffff;fill-opacity:1;fill-rule:nonzero;stroke:none"
         id="path1379"
         inkscape:connector-curvature="0" /></g><g
       id="g1385"
       transform="translate(156.0815,460.7273)"
       style="fill:#ffffff"><path
         d="m 0,0 c 0.025,0.485 -0.346,0.898 -0.831,0.924 l -0.015,0.001 c -2.032,0.108 -4.042,0.447 -5.956,1.059 -1.912,0.613 -3.739,1.458 -5.406,2.54 -1.678,1.061 -3.183,2.367 -4.515,3.805 -1.308,1.462 -2.45,3.062 -3.328,4.79 -1.799,3.438 -2.597,7.303 -2.425,11.082 0.178,3.785 1.36,7.444 3.362,10.535 0.048,0.075 0.096,0.157 0.139,0.236 0.8,1.513 0.222,3.387 -1.291,4.187 -1.512,0.799 -3.386,0.221 -4.186,-1.291 l -0.021,-0.038 c -2.226,-4.211 -3.279,-8.981 -3.082,-13.632 0.195,-4.652 1.599,-9.222 4.067,-13.07 1.212,-1.936 2.701,-3.676 4.349,-5.217 1.673,-1.516 3.511,-2.839 5.498,-3.866 1.975,-1.047 4.087,-1.805 6.243,-2.293 2.158,-0.485 4.37,-0.66 6.552,-0.583 C -0.398,-0.814 -0.024,-0.457 0,0"
         style="fill:#ffffff;fill-opacity:1;fill-rule:nonzero;stroke:none"
         id="path1383"
         inkscape:connector-curvature="0" /></g><g
       id="g1389"
       transform="translate(188.6406,509.1834)"
       style="fill:#ffffff"><path
         d="m 0,0 -0.076,0.125 c 0,0 -0.014,0.017 -0.021,0.024 -21.796,28.786 -68.561,16.258 -72.06,-19.66 -0.145,-1.486 -0.214,-3.014 -0.207,-4.58 0.132,-13.603 7.972,-26.753 19.943,-33.218 2.914,-1.625 6.057,-2.835 9.292,-3.633 1.587,-0.322 11.274,-2.461 11.035,0.069 0.021,0.667 -0.512,1.224 -1.176,1.231 -6.17,0.159 -12.275,1.897 -17.522,5.14 -1.159,0.726 -2.251,1.494 -3.278,2.295 -27.116,21.084 -9.897,66.028 26.083,60.269 0.093,-0.018 0.186,-0.035 0.279,-0.052 0.271,-0.049 0.54,-0.104 0.81,-0.163 0,0 0.003,-0.003 0.006,0 0.533,-0.114 1.065,-0.245 1.594,-0.39 0.266,-0.069 0.529,-0.145 0.792,-0.225 0.525,-0.156 1.047,-0.329 1.566,-0.515 0.259,-0.09 0.515,-0.187 0.771,-0.287 0.024,-0.011 0.048,-0.017 0.072,-0.028 0.218,-0.083 0.436,-0.172 0.65,-0.262 0.014,-0.007 0.028,-0.011 0.042,-0.018 0.113,-0.048 0.224,-0.093 0.339,-0.145 0.169,-0.073 0.338,-0.148 0.507,-0.225 0.17,-0.076 0.339,-0.155 0.505,-0.235 0.17,-0.079 0.336,-0.159 0.502,-0.242 1.161,-0.581 2.291,-1.231 3.373,-1.946 0.156,-0.103 0.308,-0.207 0.46,-0.311 l 0.457,-0.322 c 0.152,-0.107 0.3,-0.217 0.449,-0.328 0.152,-0.111 0.301,-0.224 0.446,-0.335 0.733,-0.564 1.445,-1.162 2.126,-1.791 -0.007,0 -0.01,-0.003 -0.014,-0.007 6.126,-5.635 9.61,-13.959 9.379,-22.266 0.003,-0.716 -1.117,-0.702 -1.117,0 -0.062,3.64 -0.857,7.242 -2.288,10.564 -0.159,0.374 -0.329,0.744 -0.505,1.11 0,0 -0.004,0 -0.004,0.003 -1.488,3.096 -3.543,5.913 -6.072,8.248 -0.869,0.802 -2.213,0.834 -3.081,0.032 -5.187,-4.785 -6.605,-14.317 0.833,-21.316 4.169,-3.923 6.35,-10.778 7.387,-15.258 3.785,-8.079 13.275,14.567 13.358,20.769 0,0.014 0.003,0.027 0.003,0.041 v 0.004 C 5.271,-11.276 3.26,-5.209 0,0"
         style="fill:#ffffff;fill-opacity:1;fill-rule:nonzero;stroke:none"
         id="path1387"
         inkscape:connector-curvature="0" /></g><g
       id="g1393"
       transform="translate(155.9409,471.9519)"
       style="fill:#ffffff"><path
         d="M 0,0 C 0.042,0.382 -0.234,0.726 -0.616,0.768 L -0.675,0.774 C -1.74,0.89 -2.795,1.038 -3.784,1.411 -4.29,1.551 -4.755,1.804 -5.232,2.004 -5.467,2.117 -5.687,2.259 -5.914,2.383 -6.14,2.51 -6.365,2.633 -6.571,2.793 l -0.63,0.445 c -0.202,0.159 -0.391,0.335 -0.586,0.499 l -0.29,0.249 C -8.17,4.074 -8.254,4.171 -8.343,4.262 l -0.527,0.55 -0.469,0.597 -0.234,0.297 -0.202,0.318 c -0.135,0.213 -0.274,0.42 -0.404,0.633 l -0.341,0.667 c -0.054,0.111 -0.118,0.218 -0.166,0.332 l -0.135,0.347 c -0.088,0.231 -0.188,0.456 -0.267,0.689 -0.12,0.479 -0.299,0.936 -0.359,1.424 -0.04,0.24 -0.093,0.477 -0.125,0.717 l -0.054,0.725 c -0.009,0.121 -0.023,0.24 -0.027,0.36 l 0.01,0.363 0.016,0.72 c 0.137,1.917 0.783,3.738 1.822,5.255 0.056,0.084 0.117,0.182 0.163,0.275 0.608,1.197 0.13,2.661 -1.068,3.268 -1.197,0.608 -2.661,0.13 -3.269,-1.068 l -0.029,-0.058 c -1.215,-2.394 -1.76,-5.084 -1.604,-7.68 l 0.101,-0.97 0.053,-0.482 c 0.026,-0.16 0.063,-0.318 0.095,-0.477 l 0.2,-0.947 c 0.084,-0.312 0.189,-0.617 0.285,-0.925 0.17,-0.619 0.465,-1.196 0.709,-1.783 0.14,-0.286 0.303,-0.561 0.455,-0.841 l 0.231,-0.415 c 0.08,-0.137 0.176,-0.264 0.264,-0.396 l 0.538,-0.779 c 0.196,-0.248 0.402,-0.486 0.603,-0.727 l 0.304,-0.358 0.334,-0.332 0.67,-0.653 0.726,-0.588 C -9.923,2.224 -9.806,2.123 -9.68,2.032 L -9.292,1.774 C -9.033,1.606 -8.78,1.429 -8.516,1.271 L -7.7,0.837 c 0.265,-0.152 0.551,-0.267 0.835,-0.382 0.285,-0.113 0.562,-0.241 0.851,-0.338 0.588,-0.168 1.158,-0.379 1.76,-0.471 1.18,-0.275 2.394,-0.294 3.579,-0.267 C -0.332,-0.613 -0.038,-0.351 0,0"
         style="fill:#ffffff;fill-opacity:1;fill-rule:nonzero;stroke:none"
         id="path1391"
         inkscape:connector-curvature="0" /></g></g></g><g
   clip-path="url(#clipPath68)"
   id="g1405"
   transform="translate(-19.75389,-157.92736)"><g
     id="g1403"><g
       id="g1401"><path
         inkscape:connector-curvature="0"
         id="path1399"
         style="fill:url(#linearGradient1511);stroke:none"
         d="m 81.876,428.708 c -0.811,-0.345 -1.512,-0.834 -2.104,-1.469 v 0 c -0.591,-0.635 -1.049,-1.398 -1.376,-2.289 v 0 c -0.326,-0.891 -0.488,-1.882 -0.488,-2.976 v 0 c 0,-1.094 0.162,-2.091 0.488,-2.99 v 0 c 0.327,-0.9 0.782,-1.667 1.363,-2.302 v 0 c 0.582,-0.635 1.279,-1.129 2.091,-1.481 v 0 c 0.811,-0.353 1.711,-0.53 2.699,-0.53 v 0 c 0.987,0 1.891,0.177 2.711,0.53 v 0 c 0.82,0.352 1.521,0.846 2.104,1.481 v 0 c 0.582,0.635 1.031,1.402 1.349,2.302 v 0 c 0.318,0.899 0.477,1.896 0.477,2.99 v 0 c 0,1.094 -0.164,2.085 -0.491,2.976 v 0 c -0.325,0.891 -0.78,1.654 -1.361,2.289 v 0 c -0.583,0.635 -1.284,1.124 -2.104,1.469 v 0 c -0.821,0.344 -1.716,0.515 -2.685,0.515 v 0 c -0.97,0 -1.862,-0.171 -2.673,-0.515 m 0.199,-10.041 c -0.592,0.81 -0.887,1.913 -0.887,3.307 v 0 c 0,1.376 0.295,2.465 0.887,3.268 v 0 c 0.59,0.802 1.415,1.203 2.474,1.203 v 0 c 1.057,0 1.882,-0.401 2.473,-1.203 v 0 c 0.591,-0.803 0.886,-1.892 0.886,-3.268 v 0 c 0,-1.394 -0.295,-2.497 -0.886,-3.307 v 0 c -0.591,-0.811 -1.416,-1.217 -2.473,-1.217 v 0 c -1.059,0 -1.884,0.406 -2.474,1.217" /></g></g></g><g
   clip-path="url(#clipPath90)"
   id="g1413"
   transform="translate(-19.75389,-157.92736)"><g
     id="g1411"><g
       id="g1409"><path
         inkscape:connector-curvature="0"
         id="path1407"
         style="fill:url(#linearGradient1509);stroke:none"
         d="m 96.904,428.933 c -0.952,-0.16 -1.755,-0.327 -2.408,-0.503 v 0 -18.283 h 3.203 v 5.37 c 0.352,-0.193 0.802,-0.37 1.349,-0.528 v 0 c 0.546,-0.159 1.145,-0.238 1.799,-0.238 v 0 c 0.969,0 1.839,0.176 2.605,0.529 v 0 c 0.768,0.353 1.407,0.847 1.919,1.481 v 0 c 0.511,0.636 0.904,1.393 1.177,2.276 v 0 c 0.274,0.881 0.411,1.852 0.411,2.911 v 0 c 0,1.111 -0.163,2.111 -0.49,3.002 v 0 c -0.327,0.891 -0.794,1.649 -1.403,2.275 v 0 c -0.608,0.627 -1.345,1.107 -2.209,1.442 v 0 c -0.864,0.336 -1.843,0.503 -2.936,0.503 v 0 c -1.059,0 -2.064,-0.079 -3.017,-0.237 m 1.919,-11.179 c -0.468,0.167 -0.843,0.348 -1.124,0.543 v 0 7.911 c 0.316,0.087 0.638,0.145 0.964,0.171 v 0 c 0.327,0.027 0.639,0.04 0.94,0.04 v 0 c 1.428,0 2.465,-0.397 3.109,-1.191 v 0 c 0.643,-0.793 0.965,-1.905 0.965,-3.333 v 0 c 0,-1.341 -0.268,-2.409 -0.806,-3.202 v 0 c -0.538,-0.794 -1.39,-1.19 -2.553,-1.19 v 0 c -0.53,0 -1.028,0.083 -1.495,0.251" /></g></g></g><g
   clip-path="url(#clipPath112)"
   id="g1421"
   transform="translate(-19.75389,-157.92736)"><g
     id="g1419"><g
       id="g1417"><path
         inkscape:connector-curvature="0"
         id="path1415"
         style="fill:url(#linearGradient1507);stroke:none"
         d="m 113.547,428.761 c -0.777,-0.309 -1.465,-0.768 -2.064,-1.376 v 0 c -0.6,-0.609 -1.081,-1.372 -1.443,-2.289 v 0 c -0.362,-0.918 -0.541,-1.984 -0.541,-3.201 v 0 c 0,-1.042 0.14,-1.998 0.423,-2.871 v 0 c 0.281,-0.873 0.714,-1.632 1.296,-2.275 v 0 c 0.583,-0.645 1.323,-1.148 2.223,-1.509 v 0 c 0.899,-0.362 1.957,-0.542 3.175,-0.542 v 0 c 0.476,0 0.943,0.026 1.402,0.079 v 0 c 0.459,0.053 0.886,0.119 1.283,0.199 v 0 c 0.397,0.079 0.75,0.167 1.059,0.264 v 0 c 0.308,0.096 0.551,0.189 0.728,0.277 v 0 l -0.424,2.62 c -0.371,-0.158 -0.878,-0.308 -1.522,-0.449 v 0 c -0.644,-0.142 -1.354,-0.212 -2.129,-0.212 v 0 c -1.323,0 -2.333,0.304 -3.03,0.913 v 0 c -0.697,0.609 -1.09,1.468 -1.177,2.58 v 0 h 9.128 c 0.017,0.176 0.03,0.374 0.039,0.595 v 0 c 0.009,0.22 0.014,0.419 0.014,0.595 v 0 c 0,2.346 -0.534,4.11 -1.601,5.292 v 0 c -1.068,1.181 -2.553,1.772 -4.458,1.772 v 0 c -0.812,0 -1.605,-0.154 -2.381,-0.462 m -0.424,-4.247 c 0.141,0.388 0.339,0.731 0.596,1.032 v 0 c 0.255,0.3 0.568,0.542 0.938,0.727 v 0 c 0.371,0.186 0.803,0.278 1.297,0.278 v 0 c 0.476,0 0.887,-0.084 1.231,-0.252 v 0 c 0.343,-0.167 0.634,-0.396 0.873,-0.687 v 0 c 0.238,-0.292 0.419,-0.636 0.542,-1.032 v 0 c 0.123,-0.396 0.186,-0.816 0.186,-1.257 v 0 h -5.954 c 0.053,0.406 0.15,0.803 0.291,1.191" /></g></g></g><g
   clip-path="url(#clipPath134)"
   id="g1429"
   transform="translate(-19.75389,-157.92736)"><g
     id="g1427"><g
       id="g1425"><path
         inkscape:connector-curvature="0"
         id="path1423"
         style="fill:url(#linearGradient1505);stroke:none"
         d="m 127.781,428.933 c -0.988,-0.16 -1.79,-0.327 -2.408,-0.503 v 0 -13.388 h 3.202 v 11.166 c 0.211,0.035 0.538,0.079 0.979,0.132 v 0 c 0.44,0.052 0.864,0.079 1.27,0.079 v 0 c 0.546,0 1.01,-0.075 1.389,-0.225 v 0 c 0.379,-0.15 0.678,-0.388 0.9,-0.715 v 0 c 0.219,-0.326 0.379,-0.749 0.476,-1.269 v 0 c 0.096,-0.521 0.145,-1.151 0.145,-1.892 v 0 -7.276 h 3.202 v 7.779 c 0,0.934 -0.093,1.795 -0.278,2.579 v 0 c -0.186,0.785 -0.502,1.456 -0.953,2.011 v 0 c -0.449,0.555 -1.053,0.988 -1.812,1.297 v 0 c -0.759,0.308 -1.703,0.462 -2.831,0.462 v 0 c -1.2,0 -2.294,-0.079 -3.281,-0.237" /></g></g></g><g
   clip-path="url(#clipPath156)"
   id="g1437"
   transform="translate(-19.75389,-157.92736)"><g
     id="g1435"><g
       id="g1433"><path
         inkscape:connector-curvature="0"
         id="path1431"
         style="fill:url(#linearGradient1503);stroke:none"
         d="m 142.253,434.052 c -0.935,-1.014 -1.402,-2.412 -1.402,-4.193 v 0 -14.817 h 3.202 v 11.166 h 5.027 v 2.672 h -5.027 v 0.926 c 0,0.441 0.043,0.85 0.132,1.23 v 0 c 0.088,0.379 0.238,0.701 0.449,0.966 v 0 c 0.213,0.264 0.495,0.471 0.847,0.622 v 0 c 0.353,0.149 0.785,0.225 1.296,0.225 v 0 c 0.459,0 0.887,-0.045 1.284,-0.133 v 0 c 0.397,-0.089 0.745,-0.203 1.045,-0.343 v 0 l 0.609,2.645 c -0.283,0.106 -0.706,0.225 -1.27,0.357 v 0 c -0.565,0.132 -1.218,0.199 -1.958,0.199 v 0 c -1.888,0 -3.299,-0.508 -4.234,-1.522" /></g></g></g><g
   clip-path="url(#clipPath178)"
   id="g1445"
   transform="translate(-19.75389,-157.92736)"><g
     id="g1443"><g
       id="g1441"><path
         inkscape:connector-curvature="0"
         id="path1439"
         style="fill:url(#linearGradient1501);stroke:none"
         d="m 153.552,429.012 c -0.778,-0.141 -1.368,-0.283 -1.773,-0.423 v 0 l 0.397,-2.594 c 0.387,0.142 0.89,0.265 1.507,0.371 v 0 c 0.617,0.106 1.297,0.158 2.038,0.158 v 0 c 0.546,0 1,-0.07 1.362,-0.211 v 0 c 0.361,-0.141 0.653,-0.339 0.873,-0.596 v 0 c 0.221,-0.256 0.375,-0.551 0.464,-0.886 v 0 c 0.087,-0.334 0.132,-0.688 0.132,-1.058 v 0 -0.529 c -0.442,0.106 -0.856,0.181 -1.244,0.225 v 0 c -0.389,0.043 -0.758,0.066 -1.111,0.066 v 0 c -0.759,0 -1.487,-0.075 -2.183,-0.225 v 0 c -0.697,-0.15 -1.31,-0.397 -1.838,-0.741 v 0 c -0.53,-0.344 -0.949,-0.789 -1.258,-1.336 v 0 c -0.308,-0.547 -0.462,-1.217 -0.462,-2.011 v 0 c 0,-0.829 0.136,-1.526 0.41,-2.09 v 0 c 0.273,-0.565 0.652,-1.023 1.138,-1.376 v 0 c 0.484,-0.353 1.071,-0.609 1.758,-0.767 v 0 c 0.689,-0.159 1.447,-0.238 2.276,-0.238 v 0 c 1.252,0 2.377,0.075 3.374,0.225 v 0 c 0.996,0.149 1.741,0.278 2.235,0.383 v 0 8.388 c 0,0.811 -0.093,1.556 -0.277,2.236 v 0 c -0.185,0.678 -0.494,1.256 -0.927,1.733 v 0 c -0.432,0.476 -1.01,0.846 -1.733,1.111 v 0 c -0.723,0.264 -1.614,0.396 -2.672,0.396 v 0 c -0.882,0 -1.711,-0.071 -2.486,-0.211 m 0.82,-11.285 c -0.477,0.291 -0.715,0.815 -0.715,1.575 v 0 c 0,0.387 0.088,0.709 0.265,0.966 v 0 c 0.176,0.254 0.409,0.453 0.701,0.594 v 0 c 0.29,0.142 0.617,0.239 0.979,0.291 v 0 c 0.361,0.053 0.718,0.08 1.071,0.08 v 0 c 0.406,0 0.777,-0.027 1.111,-0.08 v 0 c 0.335,-0.052 0.591,-0.105 0.768,-0.158 v 0 -3.545 c -0.512,-0.106 -1.262,-0.16 -2.249,-0.16 v 0 c -0.812,0 -1.455,0.146 -1.931,0.437" /></g></g></g><g
   clip-path="url(#clipPath200)"
   id="g1453"
   transform="translate(-19.75389,-157.92736)"><g
     id="g1451"><g
       id="g1449"><path
         inkscape:connector-curvature="0"
         id="path1447"
         style="fill:url(#linearGradient1499);stroke:none"
         d="m 167.878,428.866 c -0.926,-0.202 -1.698,-0.419 -2.315,-0.648 v 0 -13.176 h 3.201 v 11.086 c 0.16,0.053 0.437,0.115 0.834,0.185 v 0 c 0.397,0.07 0.771,0.106 1.125,0.106 v 0 c 0.617,0 1.159,-0.049 1.627,-0.146 v 0 c 0.467,-0.097 0.833,-0.19 1.098,-0.278 v 0 l 0.555,2.699 c -0.158,0.053 -0.371,0.11 -0.635,0.172 v 0 c -0.265,0.062 -0.538,0.114 -0.82,0.159 v 0 c -0.283,0.044 -0.564,0.08 -0.846,0.106 v 0 c -0.283,0.027 -0.529,0.039 -0.742,0.039 v 0 c -1.128,0 -2.156,-0.101 -3.082,-0.304" /></g></g></g><g
   clip-path="url(#clipPath222)"
   id="g1461"
   transform="translate(-19.75389,-157.92736)"><g
     id="g1459"><g
       id="g1457"><path
         inkscape:connector-curvature="0"
         id="path1455"
         style="fill:url(#linearGradient1497);stroke:none"
         d="m 188.595,429.038 c -0.414,-0.088 -0.807,-0.199 -1.177,-0.33 v 0 c -0.371,-0.132 -0.706,-0.278 -1.006,-0.437 v 0 c -0.3,-0.159 -0.547,-0.308 -0.74,-0.45 v 0 c -0.406,0.406 -0.913,0.732 -1.521,0.98 v 0 c -0.609,0.246 -1.39,0.369 -2.342,0.369 v 0 c -1.112,0 -2.166,-0.079 -3.163,-0.237 v 0 c -0.996,-0.16 -1.802,-0.327 -2.421,-0.503 v 0 -13.388 h 3.203 v 11.166 c 0.211,0.035 0.529,0.079 0.952,0.132 v 0 c 0.423,0.052 0.811,0.079 1.164,0.079 v 0 c 0.988,0 1.663,-0.322 2.024,-0.966 v 0 c 0.361,-0.644 0.542,-1.689 0.542,-3.135 v 0 -7.276 h 3.202 v 7.647 c 0,0.564 -0.027,1.092 -0.08,1.586 v 0 c -0.053,0.494 -0.15,0.962 -0.29,1.403 v 0 c 0.228,0.159 0.573,0.322 1.031,0.49 v 0 c 0.459,0.167 0.943,0.251 1.455,0.251 v 0 c 1.006,0 1.685,-0.322 2.038,-0.966 v 0 c 0.353,-0.644 0.529,-1.689 0.529,-3.135 v 0 -7.276 h 3.202 v 7.779 c 0,0.934 -0.076,1.795 -0.226,2.579 v 0 c -0.149,0.785 -0.423,1.456 -0.819,2.011 v 0 c -0.397,0.555 -0.944,0.988 -1.641,1.297 v 0 c -0.697,0.308 -1.583,0.462 -2.659,0.462 v 0 c -0.424,0 -0.843,-0.044 -1.257,-0.132" /></g></g></g><g
   clip-path="url(#clipPath244)"
   id="g1469"
   transform="translate(-19.75389,-157.92736)"><g
     id="g1467"><g
       id="g1465"><path
         inkscape:connector-curvature="0"
         id="path1463"
         style="fill:url(#linearGradient1495);stroke:none"
         d="m 199.324,434.382 c -0.388,-0.352 -0.582,-0.838 -0.582,-1.454 v 0 c 0,-0.6 0.194,-1.076 0.582,-1.429 v 0 c 0.388,-0.353 0.855,-0.53 1.402,-0.53 v 0 c 0.529,0 0.988,0.177 1.376,0.53 v 0 c 0.388,0.353 0.582,0.829 0.582,1.429 v 0 c 0,0.616 -0.194,1.102 -0.582,1.454 v 0 c -0.388,0.354 -0.847,0.529 -1.376,0.529 v 0 c -0.547,0 -1.014,-0.175 -1.402,-0.529 m -0.185,-19.34 h 3.202 v 13.837 h -3.202 z" /></g></g></g><g
   clip-path="url(#clipPath266)"
   id="g1477"
   transform="translate(-19.75389,-157.92736)"><g
     id="g1475"><g
       id="g1473"><path
         inkscape:connector-curvature="0"
         id="path1471"
         style="fill:url(#linearGradient1493);stroke:none"
         d="m 208.822,428.933 c -0.988,-0.16 -1.791,-0.327 -2.408,-0.503 v 0 -13.388 h 3.202 v 11.166 c 0.212,0.035 0.538,0.079 0.98,0.132 v 0 c 0.44,0.052 0.863,0.079 1.269,0.079 v 0 c 0.547,0 1.009,-0.075 1.389,-0.225 v 0 c 0.379,-0.15 0.679,-0.388 0.9,-0.715 v 0 c 0.22,-0.326 0.379,-0.749 0.476,-1.269 v 0 c 0.097,-0.521 0.145,-1.151 0.145,-1.892 v 0 -7.276 h 3.201 v 7.779 c 0,0.934 -0.091,1.795 -0.278,2.579 v 0 c -0.184,0.785 -0.502,1.456 -0.951,2.011 v 0 c -0.45,0.555 -1.055,0.988 -1.813,1.297 v 0 c -0.758,0.308 -1.702,0.462 -2.831,0.462 v 0 c -1.2,0 -2.293,-0.079 -3.281,-0.237" /></g></g></g><g
   id="g1483"
   transform="translate(-19.75389,-157.92736)"><g
     id="g1481"><path
       d="m 225.094,428.667 c -0.847,-0.335 -1.565,-0.802 -2.157,-1.402 v 0 c -0.591,-0.599 -1.04,-1.322 -1.349,-2.169 v 0 c -0.309,-0.847 -0.463,-1.773 -0.463,-2.778 v 0 c 0,-1.077 0.145,-2.024 0.436,-2.844 v 0 c 0.292,-0.82 0.698,-1.504 1.218,-2.051 v 0 c 0.52,-0.547 1.146,-0.962 1.878,-1.243 v 0 c 0.732,-0.283 1.539,-0.424 2.421,-0.424 v 0 c 0.671,0 1.265,0.08 1.787,0.238 v 0 c 0.519,0.159 0.938,0.318 1.256,0.476 v 0 -0.529 c 0,-1.04 -0.274,-1.826 -0.82,-2.354 v 0 c -0.547,-0.529 -1.464,-0.794 -2.752,-0.794 v 0 c -0.811,0 -1.565,0.07 -2.262,0.212 v 0 c -0.697,0.141 -1.318,0.325 -1.866,0.555 v 0 l -0.582,-2.725 c 0.653,-0.229 1.38,-0.414 2.184,-0.556 v 0 c 0.801,-0.141 1.627,-0.211 2.473,-0.211 v 0 c 2.311,0 4.026,0.511 5.147,1.534 v 0 c 1.119,1.024 1.679,2.637 1.679,4.842 v 0 11.986 c -0.652,0.176 -1.446,0.343 -2.381,0.503 v 0 c -0.934,0.158 -1.923,0.237 -2.964,0.237 v 0 c -1.075,0 -2.037,-0.167 -2.883,-0.503 m 0.198,-9.326 c -0.591,0.626 -0.886,1.618 -0.886,2.977 v 0 c 0,1.252 0.309,2.262 0.926,3.029 v 0 c 0.617,0.768 1.508,1.151 2.672,1.151 v 0 c 0.511,0 0.935,-0.022 1.27,-0.066 v 0 c 0.336,-0.044 0.617,-0.092 0.847,-0.145 v 0 -7.171 c -0.283,-0.194 -0.648,-0.361 -1.098,-0.503 v 0 c -0.45,-0.141 -0.931,-0.211 -1.442,-0.211 v 0 c -0.935,0 -1.698,0.312 -2.289,0.939"
       style="fill:url(#linearGradient1491);stroke:none"
       id="path1479"
       inkscape:connector-curvature="0" /></g></g><text
   xml:space="preserve"
   style="font-style:normal;font-variant:normal;font-weight:normal;font-stretch:normal;font-size:12px;line-height:1.25;font-family:Ubuntu;-inkscape-font-specification:Ubuntu;letter-spacing:0px;word-spacing:0px;fill:url(#linearGradient1489);fill-opacity:1;stroke:none;stroke-width:0.75"
   x="215.34842"
   y="-257.11462"
   id="text1487"
   transform="scale(1,-1)"><tspan
     sodipodi:role="line"
     id="tspan1485"
     x="215.34842"
     y="-257.11462"
     style="font-weight:normal;font-size:26.55px;fill:url(#linearGradient1489);fill-opacity:1;stroke-width:0.75">.</tspan></text><text
   xml:space="preserve"
   style="font-size:39.0267px;line-height:1.25;font-family:Ubuntu;-inkscape-font-specification:Ubuntu;text-align:center;letter-spacing:0px;word-spacing:0px;text-anchor:middle;fill:#ffffff;stroke-width:0.75"
   x="289.90247"
   y="-354.80612"
   id="text8097"
   transform="scale(1,-1)"
   inkscape:export-filename="/home/moritz/Documents/Togayo/Software/Flasher/images/logo_white_960.png"
   inkscape:export-xdpi="276.41"
   inkscape:export-ydpi="276.41"><tspan
     sodipodi:role="line"
     id="tspan8095"
     style="font-weight:normal;font-size:39.0267px;text-align:center;text-anchor:middle;fill:#ffffff;stroke-width:0.75"
     x="289.90247"
     y="-354.80612">OFAI</tspan><tspan
     sodipodi:role="line"
     style="font-weight:normal;font-size:39.0267px;text-align:center;text-anchor:middle;fill:#ffffff;stroke-width:0.75"
     x="289.90247"
     y="-306.02274"
     id="tspan27621">Flasher</tspan></text></g></svg>
