<?xml version="1.0" encoding="UTF-8" standalone="no"?>
<!-- Created with Inkscape (http://www.inkscape.org/) -->

<svg
   version="1.1"
   id="svg7537"
   width="689.28003"
   height="689.28003"
   viewBox="0 0 689.28003 689.28003"
   sodipodi:docname="favicon-inamata5.svg"
   inkscape:version="1.2 (dc2aedaf03, 2022-05-15, custom)"
   inkscape:export-filename="../b0080fd0/favicon-inamata5-256.png"
   inkscape:export-xdpi="35.654594"
   inkscape:export-ydpi="35.654594"
   xmlns:inkscape="http://www.inkscape.org/namespaces/inkscape"
   xmlns:sodipodi="http://sodipodi.sourceforge.net/DTD/sodipodi-0.dtd"
   xmlns="http://www.w3.org/2000/svg"
   xmlns:svg="http://www.w3.org/2000/svg">
  <defs
     id="defs7541" />
  <sodipodi:namedview
     id="namedview7539"
     pagecolor="#ffffff"
     bordercolor="#666666"
     borderopacity="1.0"
     inkscape:showpageshadow="2"
     inkscape:pageopacity="0.0"
     inkscape:pagecheckerboard="0"
     inkscape:deskcolor="#d1d1d1"
     showgrid="false"
     inkscape:zoom="0.58073217"
     inkscape:cx="263.46052"
     inkscape:cy="223.85534"
     inkscape:window-width="1504"
     inkscape:window-height="465"
     inkscape:window-x="26"
     inkscape:window-y="23"
     inkscape:window-maximized="0"
     inkscape:current-layer="g7543" />
  <g
     inkscape:groupmode="layer"
     inkscape:label="Image"
     id="g7543">
    <path
       style="fill:#eb6209;fill-opacity:1;stroke-width:1"
       d="m 513.32357,637.11107 c -34.08179,-2.67536 -64.06019,-19.54964 -83.55408,-47.03104 -4.7447,-6.6888 -9.72074,-15.87537 -12.65334,-23.36001 -1.41236,-3.60457 -3.56672,-10.13139 -3.85972,-11.69321 l -0.20764,-1.10679 H 323.40235 233.7559 l -58.59579,-58.64 c -32.22769,-32.252 -59.05427,-59.32483 -59.61462,-60.16189 -1.41578,-2.11485 -3.10679,-5.76378 -3.89726,-8.4096 -0.96313,-3.22381 -1.18467,-9.4055 -0.46488,-12.972 1.49173,-7.39149 5.9702,-13.97434 12.34976,-18.15274 7.03016,-4.60451 16.88517,-5.57001 25.13991,-2.46294 5.39916,2.03226 3.08574,-0.14915 57.56935,54.28381 l 50.56237,50.51536 h 77.98529 77.98532 l 0.35129,-1.36 c 0.19322,-0.748 0.85139,-2.93072 1.46263,-4.85046 6.44617,-20.24586 18.36227,-38.02378 34.69075,-51.75597 24.21501,-20.3648 56.31021,-29.46036 87.84,-24.89328 17.13741,2.48233 33.85044,9.10214 47.96337,18.9976 26.58156,18.63808 43.64051,47.63648 47.07472,80.02211 0.61475,5.79735 0.61475,17.24266 0,23.04 -2.28816,21.57818 -10.44058,41.45652 -23.92893,58.34685 -3.9936,5.00087 -12.3256,13.38295 -17.02915,17.13152 -16.78432,13.37655 -36.5161,21.61383 -57.58977,24.04164 -5.24512,0.60425 -15.54333,0.84336 -20.28669,0.47104 z m 14.7201,-56.13664 c 6.53667,-0.87021 12.08,-2.54365 17.71635,-5.34829 15.0881,-7.50775 26.11991,-21.5048 29.71821,-37.70612 3.91063,-17.60745 -0.68643,-35.57065 -12.59081,-49.19917 -17.1353,-19.61712 -46.01469,-24.61961 -68.90922,-11.93648 -13.22176,7.32458 -23.3344,20.47444 -27.10624,35.24717 -1.49386,5.85091 -2.01328,14.25024 -1.26506,20.45687 1.904,15.79401 11.02538,30.52368 24.47312,39.52038 11.21325,7.5018 24.82048,10.71533 37.96365,8.96564 z"
       id="path9520"
       sodipodi:nodetypes="cssscccssssssscccsssssssssscsssssssss" />
    <path
       style="fill:#48a1b7;fill-opacity:1;stroke-width:1"
       d="M 13.120001,267.52001 V 112.64 H 41.440002 69.76 V 267.52001 422.40002 H 41.440002 13.120001 Z m 536.146389,82.07217 c -26.32246,-2.61261 -48.46224,-12.77213 -65.28896,-29.95985 -18.34992,-18.74355 -28.97607,-43.65362 -31.96829,-74.94073 -1.7664,-18.46995 -0.37027,-38.54237 3.85078,-55.36384 8.48557,-33.81594 28.57271,-59.12759 57.21719,-72.09899 13.8825,-6.28657 28.61901,-9.47805 45.80291,-9.91955 28.36282,-0.7287 51.53585,6.11255 69.49185,20.51573 1.43651,1.15228 2.69651,2.09506 2.8,2.09506 0.10349,0 0.18873,-2.124 0.18947,-4.72 0,-2.596 0.0949,-6.556 0.20938,-8.8 l 0.20806,-4.08001 h 26.35062 26.35063 v 116.48001 116.48001 h -24.76314 -24.76313 l -0.1896,-1.68001 c -0.10429,-0.924 -0.49492,-5.496 -0.86804,-10.16 -0.37315,-4.664 -0.7264,-8.52998 -0.78502,-8.5911 -0.0587,-0.0611 -1.16061,0.80758 -2.44883,1.93043 -3.66333,3.19303 -5.57431,4.64919 -9.62599,7.33495 -13.45152,8.91673 -28.79936,13.95846 -47.59626,15.63526 -4.97766,0.44403 -19.03651,0.35251 -24.17363,-0.15737 z m 29.61364,-47.362 c 12.1655,-2.15437 21.77718,-6.97971 29.93891,-15.03017 11.51507,-11.35807 18.24749,-27.55011 19.99837,-48.09787 0.49049,-5.75625 0.2311,-18.88272 -0.48128,-24.35431 -3.12231,-23.98159 -12.30676,-41.09995 -27.51552,-51.2845 -11.97565,-8.01952 -29.32001,-11.04344 -45.4681,-7.92717 -25.47139,4.91547 -42.21674,25.69838 -46.3968,57.58385 -1.70948,13.03983 -1.08484,28.67706 1.63267,40.87266 5.18861,23.28508 18.42525,39.59455 37.21811,45.85806 3.83136,1.27696 8.64499,2.3491 12.83363,2.85842 3.64416,0.44311 14.66775,0.15364 18.24001,-0.47897 z M 237.35094,276.24001 c -0.1213,-72.03007 -0.11514,-71.69818 -1.54563,-83.28 -2.98442,-24.16316 -9.91189,-35.33325 -23.4853,-37.8685 -8.17685,-1.52728 -17.49273,-0.64658 -24.44228,2.31072 -3.6209,1.54083 -7.59746,4.30338 -10.59772,7.36232 -7.17819,7.31857 -12.06873,18.53017 -14.5323,33.31546 -2.04235,12.25725 -2.42374,21.75283 -2.42592,60.4 l -0.002,31.44 h -25.44 H 109.44 v -88.8 V 112.32 h 23.65844 c 22.25937,0 23.66762,0.0331 23.81369,0.56 0.0854,0.308 0.33157,3.44001 0.54706,6.96001 0.21549,3.52 0.43247,6.44913 0.48217,6.50919 0.0497,0.0601 1.5538,-1.12159 3.34244,-2.62588 10.40044,-8.74701 22.29347,-13.78014 37.27621,-15.77526 5.92742,-0.7893 20.14386,-0.78202 25.92,0.0133 5.1274,0.70597 12.74955,2.61588 16.8,4.20963 12.66648,4.98393 22.92349,13.59154 29.91951,25.10822 0.65429,1.07709 1.2269,1.9139 1.27245,1.85958 0.0456,-0.0543 1.23641,-1.53876 2.64635,-3.29876 10.26676,-12.81582 23.56078,-21.49225 39.21989,-25.59713 18.45665,-4.83822 40.27525,-3.83752 55.97534,2.56728 24.41808,9.9613 38.79712,31.52442 43.41754,65.10985 2.03514,14.79312 2.26541,21.88641 2.2673,69.84 l 0.002,42.16 h -25.28 -25.28 l -0.004,-35.12 c -0.003,-19.316 -0.14711,-38.72 -0.3218,-43.12 -0.83398,-21.00351 -3.27859,-34.45659 -7.89078,-43.4245 -2.88106,-5.60186 -6.15661,-8.97632 -10.8233,-11.1501 -3.29901,-1.53671 -5.79808,-2.14693 -10.64,-2.59808 -7.50617,-0.69939 -15.34445,0.60128 -21.35248,3.54319 -7.63297,3.73756 -12.96032,9.58003 -17.57611,19.27559 -3.42127,7.18644 -5.03407,12.61665 -6.44081,21.6859 -1.91166,12.32449 -1.85502,10.00667 -1.981,81.068 l -0.11559,65.20001 h -25.41341 -25.4134 l -0.11627,-69.04001 z M 36.800002,86.069412 C 30.142265,85.368925 22.95215,82.538176 18.240001,78.762346 13.37903,74.867261 9.543821,68.803206 7.785701,62.232489 7.003586,59.309446 6.930991,58.526857 6.925562,52.960002 c -0.0051,-5.231187 0.08914,-6.422896 0.675061,-8.536138 3.929645,-14.173143 14.479312,-22.538855 30.236105,-23.976732 4.586531,-0.418541 9.567127,-0.02106 14.079633,1.123628 12.837169,3.256415 21.344129,12.174966 23.759809,24.909357 0.62938,3.317834 0.62938,10.281937 0,13.59977 -2.95759,15.59115 -15.16297,25.409144 -32.476168,26.123803 -2.024,0.08355 -4.904,0.02314 -6.4,-0.134278 z"
       id="path9569"
       sodipodi:nodetypes="cccccccccsssssssscscccccccsssssssssssssssssscsssssccccccssssssssssssssccccccsssssssccccccssscsssssc" />
  </g>
</svg>
